<?xml version="1.0" encoding="utf-8"?>
<!-- Generator: Adobe Illustrator 20.1.0, SVG Export Plug-In . SVG Version: 6.00 Build 0)  -->
<svg version="1.1" id="Layer_1" xmlns="http://www.w3.org/2000/svg" xmlns:xlink="http://www.w3.org/1999/xlink" x="0px" y="0px"
	 viewBox="0 0 24 24" style="enable-background:new 0 0 24 24;" xml:space="preserve">
<style type="text/css">
	.st0{fill:#1C2D48;}
</style>
<g>
	<path class="st0" d="M4.3,12.4l1.5-4.5h4.3V6.4H5.8c-0.7,0-1.2,0.4-1.4,1l-2.1,6v8c0,0.5,0.5,1,1,1h1c0.5,0,1-0.5,1-1v-1h12v1
		c0,0.5,0.5,1,1,1h1c0.5,0,1-0.5,1-1v-8l-0.3-1H4.3z M5.8,17.4c-0.8,0-1.5-0.7-1.5-1.5c0-0.8,0.7-1.5,1.5-1.5s1.5,0.7,1.5,1.5
		C7.3,16.7,6.6,17.4,5.8,17.4z M16.8,17.4c-0.8,0-1.5-0.7-1.5-1.5c0-0.8,0.7-1.5,1.5-1.5c0.8,0,1.5,0.7,1.5,1.5
		C18.3,16.7,17.6,17.4,16.8,17.4z"/>
	<path class="st0" d="M21.9,9.8v-6c0-0.3-0.3-0.6-0.6-0.6h-3.9c-0.2,0-0.4,0.1-0.5,0.3V2.1c0-0.3-0.3-0.6-0.6-0.6h-3.9
		c-0.3,0-0.6,0.3-0.6,0.6v7.8h-1v1h1.6h3.5h0.5h1.1h0.5h3.5h1.6v-1H21.9z M13.9,7.4h-1v-1h1V7.4z M13.9,5.6h-1v-1h1V5.6z M13.9,3.8
		h-1v-1h1V3.8z M15.8,7.4h-1v-1h1V7.4z M15.8,5.6h-1v-1h1V5.6z M15.8,3.8h-1v-1h1V3.8z M18.9,7.5h-1v-1h1V7.5z M18.9,5.7h-1v-1h1
		V5.7z M20.8,7.5h-1v-1h1V7.5z M20.8,5.7h-1v-1h1V5.7z"/>
</g>
</svg>
