<?xml version="1.0" encoding="utf-8"?>
<!-- Generator: Adobe Illustrator 20.1.0, SVG Export Plug-In . SVG Version: 6.00 Build 0)  -->
<svg version="1.1" id="Layer_1" xmlns="http://www.w3.org/2000/svg" xmlns:xlink="http://www.w3.org/1999/xlink" x="0px" y="0px"
	 viewBox="0 0 24 24" style="enable-background:new 0 0 24 24;" xml:space="preserve">
<style type="text/css">
	.st0{fill:#1C2D48;}
	.st1{fill:#FF0066;}
</style>
<g>
	<path class="st0" d="M4.3,12.4l1.5-4.5h4.3V6.4H5.8c-0.7,0-1.2,0.4-1.4,1l-2.1,6v8c0,0.5,0.5,1,1,1h1c0.5,0,1-0.5,1-1v-1h12v1
		c0,0.5,0.5,1,1,1h1c0.5,0,1-0.5,1-1v-8l-0.3-1H4.3z M5.8,17.4c-0.8,0-1.5-0.7-1.5-1.5c0-0.8,0.7-1.5,1.5-1.5s1.5,0.7,1.5,1.5
		C7.3,16.7,6.6,17.4,5.8,17.4z M16.8,17.4c-0.8,0-1.5-0.7-1.5-1.5c0-0.8,0.7-1.5,1.5-1.5c0.8,0,1.5,0.7,1.5,1.5
		C18.3,16.7,17.6,17.4,16.8,17.4z"/>
	<path class="st1" d="M16.8,1.1c-2.8,0-5.1,2.3-5.1,5.1s2.3,5.1,5.1,5.1S22,9.1,22,6.2S19.7,1.1,16.8,1.1z M19.4,8.1l-0.7,0.7
		L16.8,7L15,8.8l-0.7-0.7l1.8-1.8l-1.8-1.8L15,3.7l1.8,1.8l1.8-1.8l0.7,0.7l-1.8,1.8L19.4,8.1z"/>
</g>
</svg>
