<?xml version="1.0" encoding="utf-8"?>
<!-- Generator: Adobe Illustrator 20.1.0, SVG Export Plug-In . SVG Version: 6.00 Build 0)  -->
<svg version="1.1" id="Layer_1" xmlns="http://www.w3.org/2000/svg" xmlns:xlink="http://www.w3.org/1999/xlink" x="0px" y="0px"
	 viewBox="0 0 24 24" style="enable-background:new 0 0 24 24;" xml:space="preserve">
<style type="text/css">
	.st0{fill:none;}
	.st1{fill:#1C2D48;}
</style>
<g>
</g>
<g>
	<path class="st0" d="M0,0h24v24H0V0z"/>
	<g>
		<circle class="st1" cx="6.1" cy="10.2" r="4"/>
		<path class="st1" d="M6.1,16.2c-1.1,0-2.7,0.2-4.1,0.7v5.3h12.1v-2C14.1,17.5,8.8,16.2,6.1,16.2z"/>
	</g>
	<g>
		<path class="st1" d="M22.2,5.3L18.4,5l-1.5-3.6L15.3,5l-3.9,0.3l3,2.6l-0.9,3.8l3.3-2l3.3,2l-0.9-3.8L22.2,5.3z M16.8,8.6v-5
			l0.9,2.2L20.1,6l-1.8,1.6l0.5,2.3L16.8,8.6z"/>
	</g>
</g>
</svg>
