<?xml version="1.0" encoding="utf-8"?>
<!-- Generator: Adobe Illustrator 20.1.0, SVG Export Plug-In . SVG Version: 6.00 Build 0)  -->
<svg version="1.1" id="Layer_1" xmlns="http://www.w3.org/2000/svg" xmlns:xlink="http://www.w3.org/1999/xlink" x="0px" y="0px"
	 viewBox="0 0 24 24" style="enable-background:new 0 0 24 24;" xml:space="preserve">
<style type="text/css">
	.st0{fill:none;}
	.st1{fill:#1C2D48;}
</style>
<g>
	<path class="st0" d="M0,0h24v24H0V0z"/>
	<path class="st1" d="M18.9,6c-0.2-0.6-0.8-1-1.4-1H15V3H9v2H6.5C5.8,5,5.3,5.4,5.1,6L3,12v8c0,0.5,0.5,1,1,1h1c0.6,0,1-0.5,1-1v-1
		h12v1c0,0.5,0.5,1,1,1h1c0.5,0,1-0.5,1-1v-8L18.9,6z M6.5,16C5.7,16,5,15.4,5,14.5S5.7,13,6.5,13S8,13.7,8,14.5S7.3,16,6.5,16z
		 M17.5,16c-0.8,0-1.5-0.7-1.5-1.5s0.7-1.5,1.5-1.5s1.5,0.7,1.5,1.5S18.3,16,17.5,16z M5,11l1.5-4.5h11L19,11H5z"/>
</g>
</svg>
