<?xml version="1.0" encoding="utf-8"?>
<!-- Generator: Adobe Illustrator 20.1.0, SVG Export Plug-In . SVG Version: 6.00 Build 0)  -->
<svg version="1.1" id="Layer_1" xmlns="http://www.w3.org/2000/svg" xmlns:xlink="http://www.w3.org/1999/xlink" x="0px" y="0px"
	 viewBox="0 0 24 24" style="enable-background:new 0 0 24 24;" xml:space="preserve">
<style type="text/css">
	.st0{fill:none;}
	.st1{fill:#1C2D48;}
</style>
<g>
</g>
<g>
	<path class="st0" d="M0,0.1h24v24H0V0.1z"/>
	<path class="st1" d="M18,12.4H9.8H4l1.5-4.5h4.3V6.4H5.5c-0.7,0-1.2,0.4-1.4,1l-2.1,6v8c0,0.5,0.5,1,1,1h1c0.5,0,1-0.5,1-1v-1h12v1
		c0,0.5,0.5,1,1,1h1c0.5,0,1-0.5,1-1v-8l-0.3-1H18z M5.5,17.4c-0.8,0-1.5-0.7-1.5-1.5s0.7-1.5,1.5-1.5S7,15.1,7,15.9
		S6.4,17.4,5.5,17.4z M16.5,17.4c-0.8,0-1.5-0.7-1.5-1.5s0.7-1.5,1.5-1.5c0.8,0,1.5,0.7,1.5,1.5S17.4,17.4,16.5,17.4z"/>
	<g>
		<path class="st1" d="M22.3,5l-3.9-0.3l-1.5-3.6l-1.5,3.6L11.4,5l3,2.6l-0.9,3.8l3.3-2l3.3,2l-0.9-3.8L22.3,5z M16.9,8.3v-5
			l0.9,2.2l2.4,0.2l-1.8,1.6l0.5,2.3L16.9,8.3z"/>
	</g>
</g>
</svg>
