<?xml version="1.0" encoding="utf-8"?>
<!-- Generator: Adobe Illustrator 20.1.0, SVG Export Plug-In . SVG Version: 6.00 Build 0)  -->
<svg version="1.1" id="Layer_1" xmlns="http://www.w3.org/2000/svg" xmlns:xlink="http://www.w3.org/1999/xlink" x="0px" y="0px"
	 viewBox="0 0 24 24" style="enable-background:new 0 0 24 24;" xml:space="preserve">
<style type="text/css">
	.st0{fill:none;}
	.st1{fill:#1C2D48;}
</style>
<g>
	<path class="st0" d="M0,0h24v24H0V0z"/>
	<path class="st1" d="M4.3,12.4l1.5-4.5h4.3V6.4H5.8c-0.7,0-1.2,0.4-1.4,1l-2.1,6v8c0,0.5,0.5,1,1,1h1c0.5,0,1-0.5,1-1v-1h12v1
		c0,0.5,0.5,1,1,1h1c0.5,0,1-0.5,1-1v-8l-0.3-1H4.3z M5.8,17.4c-0.8,0-1.5-0.7-1.5-1.5c0-0.8,0.7-1.5,1.5-1.5s1.5,0.7,1.5,1.5
		C7.3,16.7,6.6,17.4,5.8,17.4z M16.8,17.4c-0.8,0-1.5-0.7-1.5-1.5c0-0.8,0.7-1.5,1.5-1.5c0.8,0,1.5,0.7,1.5,1.5
		C18.3,16.7,17.6,17.4,16.8,17.4z"/>
	<path class="st1" d="M21,2.4h-8.5c-0.6,0-1.1,0.5-1.1,1.1l0,6.4c0,0.6,0.5,1.1,1.1,1.1H21c0.6,0,1.1-0.5,1.1-1.1V3.5
		C22.1,2.9,21.6,2.4,21,2.4z M21,9.9h-8.5V6.7H21V9.9z M21,4.5h-8.5V3.5H21V4.5z"/>
</g>
</svg>
