<?xml version="1.0" encoding="utf-8"?>
<!-- Generator: Adobe Illustrator 20.1.0, SVG Export Plug-In . SVG Version: 6.00 Build 0)  -->
<svg version="1.1" id="Layer_1" xmlns="http://www.w3.org/2000/svg" xmlns:xlink="http://www.w3.org/1999/xlink" x="0px" y="0px"
	 viewBox="0 0 24 24" style="enable-background:new 0 0 24 24;" xml:space="preserve">
<style type="text/css">
	.st0{fill:none;}
	.st1{fill:#1C2D48;}
	.st2{fill:#FF0066;}
</style>
<g>
	<path class="st0" d="M0,0.1h24v24H0V0.1z"/>
	<g>
		<circle class="st1" cx="6" cy="10.3" r="4"/>
		<path class="st1" d="M6,16.3c-1.1,0-2.7,0.2-4.1,0.7v5.3H14v-2C14,17.6,8.7,16.3,6,16.3z"/>
	</g>
</g>
<path class="st2" d="M16.9,1.4c-3.1,0-5.5,2.5-5.5,5.5s2.5,5.5,5.5,5.5s5.5-2.5,5.5-5.5S19.9,1.4,16.9,1.4z M19.6,8.9l-0.8,0.8l-2-2
	l-2,2l-0.8-0.8l2-2l-2-2l0.8-0.8l2,2l2-2L19.6,5l-2,2L19.6,8.9z"/>
</svg>
