<?xml version="1.0" encoding="utf-8"?>
<!-- Generator: Adobe Illustrator 20.1.0, SVG Export Plug-In . SVG Version: 6.00 Build 0)  -->
<svg version="1.1" id="Layer_1" xmlns="http://www.w3.org/2000/svg" xmlns:xlink="http://www.w3.org/1999/xlink" x="0px" y="0px"
	 viewBox="0 0 24 24" style="enable-background:new 0 0 24 24;" xml:space="preserve">
<style type="text/css">
	.st0{fill:none;}
	.st1{fill:#1C2D48;}
</style>
<g>
</g>
<g>
	<path class="st0" d="M0,0h24v24H0V0z"/>
	<g>
		<circle class="st1" cx="6.2" cy="10.2" r="4"/>
		<path class="st1" d="M6.2,16.2c-1.1,0-2.7,0.2-4.1,0.7v5.3h12.1v-2C14.2,17.6,8.9,16.2,6.2,16.2z"/>
	</g>
	<path class="st1" d="M16.7,1.4c-3,0-5.5,2.5-5.5,5.5c0,3,2.5,5.5,5.5,5.5s5.5-2.5,5.5-5.5C22.2,3.9,19.8,1.4,16.7,1.4z M18,10.3
		h-1.4V5.1l-1.4,1.2l-0.8-0.9l2.2-1.9H18V10.3z"/>
</g>
</svg>
