<?xml version="1.0" encoding="utf-8"?>
<!-- Generator: Adobe Illustrator 20.1.0, SVG Export Plug-In . SVG Version: 6.00 Build 0)  -->
<svg version="1.1" id="Layer_1" xmlns="http://www.w3.org/2000/svg" xmlns:xlink="http://www.w3.org/1999/xlink" x="0px" y="0px"
	 viewBox="0 0 24 24" style="enable-background:new 0 0 24 24;" xml:space="preserve">
<style type="text/css">
	.st0{fill:none;}
	.st1{fill:#1C2D48;}
</style>
<g>
</g>
<g>
	<path class="st0" d="M0-0.1h24v24H0V-0.1z"/>
	<path class="st1" d="M18,12.8H9.8H4l1.5-4.5h4.3V6.8H5.5c-0.7,0-1.2,0.4-1.4,1l-2.1,6v8c0,0.5,0.5,1,1,1h1c0.5,0,1-0.5,1-1v-1h12v1
		c0,0.5,0.5,1,1,1h1c0.5,0,1-0.5,1-1v-8l-0.3-1H18z M5.5,17.8c-0.8,0-1.5-0.7-1.5-1.5s0.7-1.5,1.5-1.5S7,15.4,7,16.2
		S6.3,17.8,5.5,17.8z M16.5,17.8c-0.8,0-1.5-0.7-1.5-1.5s0.7-1.5,1.5-1.5s1.5,0.7,1.5,1.5S17.3,17.8,16.5,17.8z"/>
	<path class="st1" d="M16.8,1.1c-3,0-5.5,2.5-5.5,5.5c0,3,2.5,5.5,5.5,5.5s5.5-2.5,5.5-5.5C22.3,3.6,19.8,1.1,16.8,1.1z M18.1,10
		h-1.4V4.8L15.4,6l-0.8-0.9l2.2-1.9h1.3V10z"/>
</g>
</svg>
