<?xml version="1.0" encoding="utf-8"?>
<!-- Generator: Adobe Illustrator 20.1.0, SVG Export Plug-In . SVG Version: 6.00 Build 0)  -->
<svg version="1.1" id="Layer_1" xmlns="http://www.w3.org/2000/svg" xmlns:xlink="http://www.w3.org/1999/xlink" x="0px" y="0px"
	 viewBox="0 0 24 24" style="enable-background:new 0 0 24 24;" xml:space="preserve">
<style type="text/css">
	.st0{fill:none;}
	.st1{fill:#1C2D48;}
</style>
<g>
	<path class="st0" d="M0,0.1h24v24H0V0.1z"/>
	<g>
		<circle class="st1" cx="6" cy="10.3" r="4"/>
		<path class="st1" d="M6,16.3c-1.1,0-2.7,0.2-4.1,0.7v5.3H14v-2C14,17.6,8.7,16.3,6,16.3z"/>
	</g>
</g>
<g>
	<path class="st1" d="M20.1,3.5L20.9,6h-2.2l1.1,1.1c0.1,0,0.2,0,0.2,0c0.5,0,0.8,0.4,0.8,0.8c0,0.1,0,0.2,0,0.2L22,9.3V6.5
		l-1.1-3.3c-0.1-0.3-0.4-0.6-0.8-0.6h-1.4V1.5h-3.3v1.1h0l0.8,0.8H20.1z"/>
	<path class="st1" d="M23.1,11.8L22,10.7l-2-2l-0.8-0.8l-2-2l-2.5-2.5L14,2.7L12.3,1l-0.7,0.7l1.6,1.6l-1.1,3.2v4.4
		c0,0.3,0.2,0.6,0.6,0.6h0.6c0.3,0,0.6-0.2,0.6-0.6v-0.6h6.6l0.1,0.1v0.5c0,0.3,0.2,0.6,0.6,0.6h0.5l1,1L23.1,11.8z M14,8.7
		c-0.5,0-0.8-0.4-0.8-0.8s0.4-0.8,0.8-0.8c0.5,0,0.8,0.4,0.8,0.8S14.5,8.7,14,8.7z M13.2,6l0.7-2l2,2H13.2z"/>
</g>
</svg>
