<?xml version="1.0" encoding="utf-8"?>
<!-- Generator: Adobe Illustrator 20.1.0, SVG Export Plug-In . SVG Version: 6.00 Build 0)  -->
<svg version="1.1" id="Layer_1" xmlns="http://www.w3.org/2000/svg" xmlns:xlink="http://www.w3.org/1999/xlink" x="0px" y="0px"
	 viewBox="0 0 60 60" style="enable-background:new 0 0 60 60;" xml:space="preserve">
<style type="text/css">
	.st0{display:none;}
	.st1{display:inline;fill:#D0D2D3;}
	.st2{display:inline;fill:#A6A8AB;}
	.st3{display:inline;}
	.st4{fill:#A6A8AB;}
	.st5{display:inline;fill:#1D2D48;}
	.st6{display:inline;fill:#FFFFFF;}
	.st7{fill:#FFFFFF;}
	.st8{display:inline;opacity:0.75;}
	.st9{fill:#08A88D;}
	.st10{display:inline;opacity:0.2;fill:#596E89;}
	.st11{fill:#1D2D48;}
	.st12{fill:#EC1968;}
	.st13{display:inline;opacity:0.1;}
	.st14{opacity:0.1;}
	.st15{clip-path:url(#SVGID_2_);}
	.st16{fill:#596E89;}
	.st17{fill:#D0D2D3;}
	.st18{clip-path:url(#SVGID_4_);}
</style>
<g class="st0">
	<circle class="st1" cx="30" cy="30" r="26.6"/>
	<path class="st2" d="M20.7,34.3h0.8c0.4,1.1,1.4,1.8,2.5,1.8c1.2,0,2.2-0.8,2.5-1.8h7.6h0.1c0.4,1.1,1.4,1.8,2.5,1.8
		c1.2,0,2.2-0.8,2.5-1.8c0.5,0,0.8-0.4,0.8-0.9l-0.2-3.3c0-0.5-0.4-0.9-0.9-0.9h-0.6c-0.2-1.5-0.7-3-1.4-4.5
		c-0.2-0.4-0.6-0.7-1.1-0.7h-7.4l-4.3,4.2c-1.7,0.6-3.6,1.7-3.3,3.8h-0.1c-0.4,0-0.8,0.4-0.8,0.8v0.7C19.9,33.9,20.3,34.3,20.7,34.3
		z M24,34.5c-0.3,0-0.5-0.1-0.7-0.3c-0.2-0.2-0.4-0.5-0.4-0.9c0-0.6,0.5-1.1,1-1.1c0,0,0.1,0,0.1,0c0.6,0,1.1,0.5,1.1,1.1
		c0,0.3-0.2,0.7-0.4,0.9C24.5,34.4,24.3,34.5,24,34.5z M34.1,29.9h-1.4v-0.5h1.4V29.9z M36.8,34.5c-0.3,0-0.5-0.1-0.7-0.3
		c-0.2-0.2-0.4-0.5-0.4-0.9c0-0.6,0.5-1.1,1.1-1.1c0.6,0,1.1,0.5,1.1,1.1c0,0.1,0,0.2,0,0.2c-0.1,0.2-0.2,0.5-0.4,0.6
		C37.3,34.4,37,34.5,36.8,34.5z M27,28.1l1.6-1.6c0.5-0.6,1.3-0.9,2.1-0.9h2.3c0.2,0,0.4,0.2,0.5,0.4l0.6,2c0.1,0.2-0.1,0.4-0.3,0.4
		h-6.7C27,28.3,26.9,28.2,27,28.1z"/>
</g>
<g class="st0">
	<path class="st1" d="M35.2,56.6H24.8C13,56.6,3.4,47,3.4,35.2V24.8C3.4,13,13,3.4,24.8,3.4h10.4C47,3.4,56.6,13,56.6,24.8v10.4
		C56.6,47,47,56.6,35.2,56.6z"/>
	<g class="st3">
		<path class="st4" d="M34.7,54.8h-9.4c-11.1,0-20.1-9-20.1-20.1v-9.4c0-11.1,9-20.1,20.1-20.1h9.4c11.1,0,20.1,9,20.1,20.1v9.4
			C54.8,45.8,45.8,54.8,34.7,54.8z M25.3,7.1c-10,0-18.2,8.2-18.2,18.2v9.4c0,10,8.2,18.2,18.2,18.2h9.4c10,0,18.2-8.2,18.2-18.2
			v-9.4c0-10-8.2-18.2-18.2-18.2H25.3z"/>
	</g>
	<path class="st2" d="M14.6,32.4v1.1c0,0.2,0.1,0.3,0.3,0.3h1.6l0,0h1.2c0.6,1.1,1.7,1.9,3,1.9s2.5-0.8,3-1.9h12.3
		c0.6,1.1,1.7,1.9,3,1.9c1.3,0,2.5-0.8,3-1.9h1.3l0,0H45c0.2,0,0.3-0.1,0.3-0.3v-1.1c0-0.2-0.1-0.3-0.3-0.3h-0.7l1.1-2.1v-2.2
		c0-0.5-0.4-0.9-0.9-0.9H42l-4.7-2.6h-9.5l-3.9,3l-7,0.9c-0.3,0-0.6,0.3-0.8,0.6l-1.1,2.7c-0.1,0.2-0.1,0.4,0.1,0.6h-0.3
		C14.8,32.2,14.6,32.3,14.6,32.4z M22.4,32.3c0,0.9-0.7,1.6-1.6,1.6s-1.6-0.7-1.6-1.6c0-0.9,0.7-1.6,1.6-1.6S22.4,31.4,22.4,32.3z
		 M40.8,32.3c0,0.9-0.7,1.6-1.6,1.6c-0.9,0-1.6-0.7-1.6-1.6c0-0.9,0.7-1.6,1.6-1.6C40,30.7,40.8,31.4,40.8,32.3z M37.8,25.6l0.8,0.6
		c0.2,0.1,0.2,0.3,0,0.4l-1.3,1c-0.2,0.1-0.4,0.2-0.7,0.2h-2.2l0.9-2.4h1.8C37.4,25.3,37.6,25.4,37.8,25.6z M25.5,27.5l2.1-1.9
		c0.2-0.2,0.4-0.3,0.7-0.3h5.5l-1.1,2.4h-7.1C25.5,27.8,25.4,27.6,25.5,27.5z"/>
</g>
<g class="st0">
	<circle class="st1" cx="30" cy="30" r="26.6"/>
	<path class="st2" d="M17.5,32.1c0.1,0.6,0.6,1.1,1.2,1.3c0.2,1.5,1.5,2.6,3.1,2.6c1.5,0,2.8-1.1,3.1-2.6H35
		c0.3,1.5,1.5,2.6,3.1,2.6c1.5,0,2.8-1.1,3.1-2.6c0.2,0,0.4-0.1,0.6-0.2l0.8-0.6c0.2-0.1,0.3-0.4,0.3-0.6v-2.3
		c0-0.2-0.2-0.4-0.4-0.4h-0.6c0-0.8-0.3-1.5-0.9-2.1l-2.9-2.9c-0.3-0.3-0.8-0.5-1.3-0.5h-6.6c-0.3,0-0.5,0.1-0.7,0.2l-5.7,3.6
		l-5.2,0.7c-0.1,0-0.2,0-0.3,0.1c-0.8,0.3-1.3,1.1-1.1,1.9L17.5,32.1z M21.8,34.3c-0.5,0-1-0.3-1.2-0.8c-0.1-0.2-0.1-0.3-0.1-0.5
		c0-0.7,0.6-1.3,1.3-1.3c0.7,0,1.3,0.6,1.3,1.3c0,0.2,0,0.4-0.1,0.5C22.8,34,22.3,34.3,21.8,34.3z M38.1,34.3c-0.5,0-1-0.3-1.2-0.8
		c-0.1-0.2-0.1-0.3-0.1-0.5c0-0.7,0.6-1.3,1.3-1.3c0.7,0,1.3,0.6,1.3,1.3c0,0.2,0,0.4-0.1,0.5C39.1,34,38.6,34.3,38.1,34.3z
		 M35.4,25.5c0-0.2,0.1-0.3,0.3-0.3h1.1c0.2,0,0.4,0.1,0.5,0.2l1.8,1.9c0.1,0.1,0,0.2-0.1,0.2h-3.4c-0.2,0-0.3-0.1-0.3-0.3V25.5z
		 M34.1,29.3h-1.2v-0.4h1.2V29.3z M26.5,27.4l3-2c0.2-0.1,0.4-0.2,0.6-0.2h3.4c0.2,0,0.3,0.1,0.3,0.3v1.7c0,0.2-0.1,0.3-0.3,0.3h-7
		C26.5,27.6,26.4,27.5,26.5,27.4z"/>
	<g class="st3">
		<path class="st4" d="M30,54.3C16.6,54.3,5.7,43.4,5.7,30S16.6,5.7,30,5.7S54.3,16.6,54.3,30S43.4,54.3,30,54.3z M30,6.6
			C17.1,6.6,6.6,17.1,6.6,30S17.1,53.4,30,53.4S53.4,42.9,53.4,30S42.9,6.6,30,6.6z"/>
	</g>
</g>
<g class="st0">
	<circle class="st5" cx="30" cy="30" r="26.6"/>
	<path class="st6" d="M17.5,33.7c0.1,0.6,0.6,1.1,1.2,1.3c0.2,1.5,1.5,2.6,3.1,2.6c1.5,0,2.8-1.1,3.1-2.6H35
		c0.3,1.5,1.5,2.6,3.1,2.6c1.5,0,2.8-1.1,3.1-2.6c0.2,0,0.4-0.1,0.6-0.2l0.8-0.6c0.2-0.1,0.3-0.4,0.3-0.6v-2.3
		c0-0.2-0.2-0.4-0.4-0.4h-0.6c0-0.8-0.3-1.5-0.9-2.1L38.1,26c-0.3-0.3-0.8-0.5-1.3-0.5h-6.6c-0.3,0-0.5,0.1-0.7,0.2l-5.7,3.6
		L18.5,30c-0.1,0-0.2,0-0.3,0.1c-0.8,0.3-1.3,1.1-1.1,1.9L17.5,33.7z M21.8,35.8c-0.5,0-1-0.3-1.2-0.8c-0.1-0.2-0.1-0.3-0.1-0.5
		c0-0.7,0.6-1.3,1.3-1.3c0.7,0,1.3,0.6,1.3,1.3c0,0.2,0,0.4-0.1,0.5C22.8,35.5,22.3,35.8,21.8,35.8z M38.1,35.8
		c-0.5,0-1-0.3-1.2-0.8c-0.1-0.2-0.1-0.3-0.1-0.5c0-0.7,0.6-1.3,1.3-1.3c0.7,0,1.3,0.6,1.3,1.3c0,0.2,0,0.4-0.1,0.5
		C39.1,35.5,38.6,35.8,38.1,35.8z M35.4,27.1c0-0.2,0.1-0.3,0.3-0.3h1.1c0.2,0,0.4,0.1,0.5,0.2l1.8,1.9c0.1,0.1,0,0.2-0.1,0.2h-3.4
		c-0.2,0-0.3-0.1-0.3-0.3V27.1z M34.1,30.8h-1.2v-0.4h1.2V30.8z M26.5,28.9l3-2c0.2-0.1,0.4-0.2,0.6-0.2h3.4c0.2,0,0.3,0.1,0.3,0.3
		v1.7c0,0.2-0.1,0.3-0.3,0.3h-7C26.5,29.1,26.4,29,26.5,28.9z"/>
	<g class="st3">
		<polygon class="st7" points="30,18.6 30.6,19.9 32,20.1 31,21 31.2,22.4 30,21.8 28.7,22.4 29,21 28,20.1 29.4,19.9 		"/>
		<path class="st7" d="M35,20.8h-1.8c-0.2,0-0.3-0.2-0.3-0.3v0c0-0.2,0.2-0.3,0.3-0.3H35c0.2,0,0.3,0.2,0.3,0.3v0
			C35.4,20.7,35.2,20.8,35,20.8z"/>
		<path class="st7" d="M26.7,20.8H25c-0.2,0-0.3-0.2-0.3-0.3v0c0-0.2,0.2-0.3,0.3-0.3h1.8c0.2,0,0.3,0.2,0.3,0.3v0
			C27.1,20.7,26.9,20.8,26.7,20.8z"/>
	</g>
	<g class="st8">
		<path class="st9" d="M30,54.3C16.6,54.3,5.7,43.4,5.7,30S16.6,5.7,30,5.7S54.3,16.6,54.3,30S43.4,54.3,30,54.3z M30,6.6
			C17.1,6.6,6.6,17.1,6.6,30S17.1,53.4,30,53.4S53.4,42.9,53.4,30S42.9,6.6,30,6.6z"/>
	</g>
</g>
<g class="st0">
	<path class="st5" d="M35.2,56.6H24.8C13,56.6,3.4,47,3.4,35.2V24.8C3.4,13,13,3.4,24.8,3.4h10.4C47,3.4,56.6,13,56.6,24.8v10.4
		C56.6,47,47,56.6,35.2,56.6z"/>
	<rect x="23.7" y="3.4" class="st10" width="12.6" height="53.1"/>
	<g class="st3">
		<path class="st9" d="M34.7,54.8h-9.4c-11.1,0-20.1-9-20.1-20.1v-9.4c0-11.1,9-20.1,20.1-20.1h9.4c11.1,0,20.1,9,20.1,20.1v9.4
			C54.8,45.8,45.8,54.8,34.7,54.8z M25.3,7.1c-10,0-18.2,8.2-18.2,18.2v9.4c0,10,8.2,18.2,18.2,18.2h9.4c10,0,18.2-8.2,18.2-18.2
			v-9.4c0-10-8.2-18.2-18.2-18.2H25.3z"/>
	</g>
	<path class="st6" d="M14.6,34.1v1.1c0,0.2,0.1,0.3,0.3,0.3h1.6l0,0h1.2c0.6,1.1,1.7,1.9,3,1.9s2.5-0.8,3-1.9h12.3
		c0.6,1.1,1.7,1.9,3,1.9c1.3,0,2.5-0.8,3-1.9h1.3l0,0H45c0.2,0,0.3-0.1,0.3-0.3v-1.1c0-0.2-0.1-0.3-0.3-0.3h-0.7l1.1-2.1v-2.2
		c0-0.5-0.4-0.9-0.9-0.9H42l-4.7-2.6h-9.5l-3.9,3l-7,0.9c-0.3,0-0.6,0.3-0.8,0.6l-1.1,2.7c-0.1,0.2-0.1,0.4,0.1,0.6h-0.3
		C14.8,33.8,14.6,33.9,14.6,34.1z M22.4,33.9c0,0.9-0.7,1.6-1.6,1.6s-1.6-0.7-1.6-1.6c0-0.9,0.7-1.6,1.6-1.6S22.4,33,22.4,33.9z
		 M40.8,33.9c0,0.9-0.7,1.6-1.6,1.6c-0.9,0-1.6-0.7-1.6-1.6c0-0.9,0.7-1.6,1.6-1.6C40,32.3,40.8,33,40.8,33.9z M37.8,27.2l0.8,0.6
		c0.2,0.1,0.2,0.3,0,0.4l-1.3,1c-0.2,0.1-0.4,0.2-0.7,0.2h-2.2l0.9-2.4h1.8C37.4,27,37.6,27,37.8,27.2z M25.5,29.1l2.1-1.9
		C27.8,27,28,27,28.3,27h5.5l-1.1,2.4h-7.1C25.5,29.4,25.4,29.2,25.5,29.1z"/>
	<g class="st3">
		<polygon class="st7" points="30,18.6 30.6,19.8 32,20 31,21 31.2,22.4 30,21.7 28.7,22.4 29,21 28,20 29.4,19.8 		"/>
		<path class="st7" d="M37.9,20.2h-4.6c-0.2,0-0.3-0.2-0.3-0.3l0,0c0-0.2,0.2-0.3,0.3-0.3h4.6c0.2,0,0.3,0.2,0.3,0.3l0,0
			C38.2,20,38.1,20.2,37.9,20.2z"/>
		<path class="st7" d="M26.7,20.2h-4.6c-0.2,0-0.3-0.2-0.3-0.3l0,0c0-0.2,0.2-0.3,0.3-0.3h4.6c0.2,0,0.3,0.2,0.3,0.3l0,0
			C27.1,20,26.9,20.2,26.7,20.2z"/>
		<path class="st7" d="M36,21.4h-2.7c-0.2,0-0.3-0.2-0.3-0.3l0,0c0-0.2,0.2-0.3,0.3-0.3H36c0.2,0,0.3,0.2,0.3,0.3l0,0
			C36.3,21.2,36.2,21.4,36,21.4z"/>
		<path class="st7" d="M26.7,21.4H24c-0.2,0-0.3-0.2-0.3-0.3l0,0c0-0.2,0.2-0.3,0.3-0.3h2.7c0.2,0,0.3,0.2,0.3,0.3l0,0
			C27.1,21.2,26.9,21.4,26.7,21.4z"/>
	</g>
</g>
<g class="st0">
	<g class="st3">
		<g>
			<g>
				<path class="st11" d="M31.7,3.8L34.5,5c0.5,0.2,1.1,0.4,1.7,0.4h3.1c1.2,0,2.3,0.5,3.1,1.4L44.4,9c0.4,0.4,0.9,0.8,1.4,1
					l2.8,1.2c1.1,0.5,1.9,1.4,2.2,2.5l0.9,2.9c0.2,0.6,0.5,1.1,0.9,1.5l2.1,2.3c0.8,0.9,1.2,2,1,3.2l-0.3,3.1
					c-0.1,0.6,0,1.2,0.2,1.7l0.9,2.9c0.4,1.1,0.2,2.3-0.4,3.3l-1.5,2.7c-0.3,0.5-0.5,1.1-0.5,1.6L53.8,42c-0.1,1.2-0.7,2.2-1.7,2.9
					l-2.5,1.8c-0.5,0.3-0.9,0.8-1.2,1.3l-1.5,2.7c-0.6,1-1.6,1.7-2.7,2l-3,0.6c-0.6,0.1-1.1,0.4-1.6,0.7l-2.5,1.8
					c-0.9,0.7-2.1,0.9-3.3,0.7l-3-0.6c-0.6-0.1-1.2-0.1-1.7,0l-3,0.6c-1.1,0.2-2.3,0-3.3-0.7L20.4,54c-0.5-0.3-1-0.6-1.6-0.7l-3-0.6
					c-1.1-0.2-2.1-1-2.7-2L11.5,48c-0.3-0.5-0.7-0.9-1.2-1.3l-2.5-1.8C7,44.3,6.4,43.2,6.2,42L5.9,39c-0.1-0.6-0.2-1.1-0.5-1.6
					l-1.5-2.7c-0.6-1-0.7-2.2-0.4-3.3l0.9-2.9c0.2-0.6,0.2-1.1,0.2-1.7l-0.3-3.1c-0.1-1.2,0.3-2.3,1-3.2l2.1-2.3
					c0.4-0.4,0.7-0.9,0.9-1.5l0.9-2.9c0.4-1.1,1.2-2,2.2-2.5l2.8-1.2c0.5-0.2,1-0.6,1.4-1l2.1-2.3c0.8-0.9,1.9-1.4,3.1-1.4h3.1
					c0.6,0,1.2-0.1,1.7-0.4l2.8-1.2C29.4,3.3,30.6,3.3,31.7,3.8z"/>
			</g>
			<g>
				<path class="st12" d="M34.7,56.9c-0.3,0-0.6,0-0.9-0.1l-3-0.6c-0.5-0.1-1.1-0.1-1.6,0l-3,0.6c-1.2,0.3-2.5,0-3.5-0.7l-2.5-1.8
					c-0.4-0.3-0.9-0.5-1.5-0.7l-3-0.6c-1.2-0.3-2.3-1-2.9-2.1l-1.5-2.7c-0.3-0.5-0.6-0.9-1.1-1.2l-2.5-1.8c-1-0.7-1.7-1.9-1.8-3.1
					L5.6,39c-0.1-0.5-0.2-1.1-0.5-1.5l-1.5-2.7c-0.6-1.1-0.8-2.4-0.4-3.6l0.9-2.9c0.2-0.5,0.2-1.1,0.2-1.6L4,23.7
					c-0.1-1.2,0.3-2.5,1.1-3.4L7.2,18c0.4-0.4,0.6-0.9,0.8-1.4l0.9-2.9c0.4-1.2,1.3-2.2,2.4-2.7l2.8-1.2c0.5-0.2,0.9-0.5,1.3-0.9
					l2.1-2.3c0.8-0.9,2-1.5,3.3-1.5h3.1c0.5,0,1.1-0.1,1.6-0.3l2.8-1.2c1.1-0.5,2.5-0.5,3.6,0l2.8,1.2c0.5,0.2,1,0.3,1.6,0.3h3.1
					c1.3,0,2.4,0.5,3.3,1.5l2.1,2.3c0.4,0.4,0.8,0.7,1.3,0.9l2.8,1.2c1.1,0.5,2,1.5,2.4,2.7l0.9,2.9c0.2,0.5,0.4,1,0.8,1.4l2.1,2.3
					c0.8,0.9,1.2,2.2,1.1,3.4l-0.3,3.1c-0.1,0.5,0,1.1,0.2,1.6l0.9,2.9c0.4,1.2,0.2,2.5-0.4,3.6l-1.5,2.7c-0.3,0.5-0.4,1-0.5,1.5
					l-0.3,3.1c-0.1,1.2-0.8,2.4-1.8,3.1L49.8,47c-0.4,0.3-0.8,0.7-1.1,1.2l-1.5,2.7c-0.6,1.1-1.7,1.9-2.9,2.1l-3,0.6
					c-0.5,0.1-1,0.3-1.5,0.7L37.3,56C36.6,56.6,35.6,56.9,34.7,56.9z M30,55.5c0.3,0,0.6,0,0.9,0.1l3,0.6c1.1,0.2,2.2,0,3.1-0.7
					l2.5-1.8c0.5-0.4,1.1-0.6,1.7-0.7l3-0.6c1.1-0.2,2-0.9,2.5-1.8l1.5-2.7c0.3-0.5,0.7-1,1.2-1.4l2.5-1.8c0.9-0.6,1.5-1.6,1.6-2.7
					l0.3-3.1c0.1-0.6,0.3-1.2,0.6-1.7l1.5-2.7c0.5-0.9,0.7-2.1,0.3-3.1l-0.9-2.9c-0.2-0.6-0.3-1.2-0.2-1.8l0.3-3.1
					c0.1-1.1-0.2-2.2-1-3l-2.1-2.3c-0.4-0.5-0.7-1-0.9-1.6l-0.9-2.9c-0.3-1-1.1-1.9-2.1-2.3l-2.8-1.2c-0.6-0.3-1.1-0.6-1.5-1.1
					l-2.1-2.3c-0.7-0.8-1.8-1.3-2.9-1.3h-3.1c-0.6,0-1.2-0.1-1.8-0.4L31.6,4c-1-0.4-2.1-0.4-3.1,0l-2.8,1.2
					c-0.6,0.3-1.2,0.4-1.8,0.4h-3.1c-1.1,0-2.1,0.5-2.9,1.3l-2.1,2.3c-0.4,0.5-0.9,0.8-1.5,1.1l-2.8,1.2c-1,0.4-1.8,1.3-2.1,2.3
					l-0.9,2.9c-0.2,0.6-0.5,1.1-0.9,1.6l-2.1,2.3c-0.7,0.8-1.1,1.9-1,3l0.3,3.1c0.1,0.6,0,1.2-0.2,1.8l-0.9,2.9
					c-0.3,1-0.2,2.2,0.3,3.1l1.5,2.7c0.3,0.5,0.5,1.1,0.6,1.7L6.5,42c0.1,1.1,0.7,2.1,1.6,2.7l2.5,1.8c0.5,0.4,0.9,0.8,1.2,1.4
					l1.5,2.7c0.5,0.9,1.5,1.6,2.5,1.8l3,0.6c0.6,0.1,1.2,0.4,1.7,0.7l2.5,1.8c0.9,0.6,2,0.9,3.1,0.7l3-0.6
					C29.4,55.5,29.7,55.5,30,55.5z"/>
			</g>
		</g>
	</g>
	<g class="st13">
		<path class="st7" d="M33.5,50.2c-0.2,0-0.5,0-0.7-0.1l-2.2-0.5c-0.4-0.1-0.7-0.1-1.1,0l-2.2,0.5c-1,0.2-2,0-2.8-0.6l-1.8-1.3
			c-0.3-0.2-0.6-0.4-1-0.4l-2.2-0.5c-1-0.2-1.8-0.8-2.3-1.7l-1.1-2c-0.2-0.3-0.4-0.6-0.7-0.8l-1.8-1.3c-0.8-0.6-1.3-1.5-1.4-2.5
			l-0.2-2.3c0-0.4-0.1-0.7-0.3-1l-1.1-2c-0.5-0.9-0.6-1.9-0.3-2.9l0.7-2.2c0.1-0.3,0.2-0.7,0.1-1.1l-0.2-2.3c-0.1-1,0.2-2,0.9-2.7
			l1.5-1.7c0.2-0.3,0.4-0.6,0.5-0.9l0.7-2.2c0.3-1,1-1.7,1.9-2.1l2.1-0.9c0.3-0.1,0.6-0.4,0.9-0.6l1.5-1.7c0.7-0.7,1.6-1.2,2.6-1.2
			h2.3c0.4,0,0.7-0.1,1.1-0.2l2.1-0.9c0.9-0.4,2-0.4,2.9,0l2.1,0.9c0.3,0.1,0.7,0.2,1.1,0.2h2.3c1,0,2,0.4,2.6,1.2l1.5,1.7
			c0.2,0.3,0.5,0.5,0.9,0.6l2.1,0.9c0.9,0.4,1.6,1.2,1.9,2.1l0.7,2.2c0.1,0.3,0.3,0.7,0.5,0.9l1.5,1.7c0.7,0.7,1,1.7,0.9,2.7
			l-0.2,2.3c0,0.4,0,0.7,0.1,1.1l0.7,2.2c0.3,1,0.2,2-0.3,2.9l-1.1,2c-0.2,0.3-0.3,0.7-0.3,1L48.1,39c-0.1,1-0.6,1.9-1.4,2.5
			l-1.8,1.3c-0.3,0.2-0.5,0.5-0.7,0.8l-1.1,2c-0.5,0.9-1.3,1.5-2.3,1.7l-2.2,0.5c-0.4,0.1-0.7,0.2-1,0.4l-1.8,1.3
			C35,49.9,34.2,50.2,33.5,50.2z M30,48.6c0.2,0,0.5,0,0.7,0.1l2.2,0.5c0.7,0.2,1.5,0,2.1-0.4l1.8-1.3c0.4-0.3,0.9-0.5,1.3-0.6
			l2.2-0.5c0.7-0.2,1.3-0.6,1.7-1.2l1.1-2c0.2-0.4,0.6-0.8,1-1.1l1.8-1.3c0.6-0.4,1-1.1,1.1-1.8l0.2-2.3c0.1-0.5,0.2-1,0.5-1.4
			l1.1-2c0.4-0.6,0.4-1.4,0.2-2.1L48.5,29c-0.2-0.5-0.2-1-0.2-1.5l0.2-2.3c0.1-0.7-0.2-1.5-0.6-2l-1.5-1.7c-0.3-0.4-0.6-0.8-0.7-1.3
			l-0.7-2.2c-0.2-0.7-0.7-1.3-1.4-1.6l-2.1-0.9c-0.5-0.2-0.9-0.5-1.2-0.9l-1.5-1.7c-0.5-0.5-1.2-0.9-1.9-0.9h-2.3
			c-0.5,0-1-0.1-1.4-0.3L31.1,11c-0.7-0.3-1.4-0.3-2.1,0l-2.1,0.9c-0.5,0.2-0.9,0.3-1.4,0.3h-2.3c-0.7,0-1.4,0.3-1.9,0.9l-1.5,1.7
			c-0.3,0.4-0.7,0.7-1.2,0.9l-2.1,0.9c-0.7,0.3-1.2,0.9-1.4,1.6l-0.7,2.2c-0.2,0.5-0.4,0.9-0.7,1.3l-1.5,1.7c-0.5,0.5-0.7,1.3-0.6,2
			l0.2,2.3c0.1,0.5,0,1-0.2,1.5l-0.7,2.2c-0.2,0.7-0.1,1.5,0.2,2.1l1.1,2c0.2,0.4,0.4,0.9,0.5,1.4l0.2,2.3c0.1,0.7,0.5,1.4,1.1,1.8
			l1.8,1.3c0.4,0.3,0.7,0.7,1,1.1l1.1,2c0.4,0.6,1,1.1,1.7,1.2l2.2,0.5c0.5,0.1,0.9,0.3,1.3,0.6l1.8,1.3c0.6,0.4,1.3,0.6,2.1,0.4
			l2.2-0.5C29.5,48.6,29.8,48.6,30,48.6z"/>
	</g>
	<g class="st3">
		<path class="st12" d="M25.9,54.1c-1,0-1.9-0.3-2.7-0.9l-2.2-1.6c-0.3-0.2-0.6-0.4-1-0.4l-2.6-0.6c-1.3-0.3-2.3-1.1-3-2.2l-1.3-2.3
			c-0.2-0.3-0.4-0.6-0.7-0.8l-2.2-1.6c-1-0.8-1.7-1.9-1.8-3.2l-0.3-2.7c0-0.4-0.2-0.7-0.3-1l-1.3-2.3c-0.6-1.1-0.8-2.5-0.4-3.7
			l0.8-2.5C7,28,7,27.6,7,27.2l-0.3-2.7C6.6,23.3,7,22,7.9,21.1l1.8-2c0.2-0.3,0.4-0.6,0.5-1l0.8-2.5c0.4-1.2,1.3-2.2,2.5-2.7
			l2.4-1.1c0.3-0.2,0.6-0.4,0.9-0.6l1.8-2c0.9-1,2.1-1.5,3.4-1.5h2.7c0.4,0,0.7-0.1,1.1-0.2l2.4-1.1c1.2-0.5,2.5-0.5,3.7,0l2.4,1.1
			c0.3,0.2,0.7,0.2,1.1,0.2H38c1.3,0,2.5,0.5,3.4,1.5l1.8,2c0.2,0.3,0.5,0.5,0.9,0.6l2.4,1.1c1.2,0.5,2.1,1.5,2.5,2.7l0.8,2.5
			c0.1,0.4,0.3,0.7,0.5,1l1.8,2c0.9,1,1.3,2.2,1.1,3.5L53,27.2c0,0.4,0,0.7,0.1,1.1l0.8,2.5c0.4,1.2,0.3,2.6-0.4,3.7l-1.3,2.3
			c-0.2,0.3-0.3,0.7-0.3,1l-0.3,2.7c-0.1,1.3-0.8,2.4-1.8,3.2l-2.2,1.6c-0.3,0.2-0.5,0.5-0.7,0.8l-1.3,2.3c-0.6,1.1-1.7,1.9-3,2.2
			l-2.6,0.6c-0.4,0.1-0.7,0.2-1,0.4l-2.2,1.6c-1,0.8-2.4,1-3.6,0.8l-2.6-0.6c-0.4-0.1-0.7-0.1-1.1,0L26.8,54
			C26.5,54,26.2,54.1,25.9,54.1z M22,9.5c-0.7,0-1.5,0.3-2,0.9l-1.8,2c-0.4,0.5-0.9,0.8-1.5,1.1l-2.4,1.1c-0.7,0.3-1.2,0.9-1.4,1.6
			L12,18.7c-0.2,0.6-0.5,1.2-0.9,1.6l-1.8,2c-0.5,0.6-0.7,1.3-0.7,2L8.9,27c0.1,0.6,0,1.3-0.2,1.9l-0.8,2.5
			c-0.2,0.7-0.1,1.5,0.2,2.1l1.3,2.3c0.3,0.6,0.5,1.2,0.6,1.8l0.3,2.7c0.1,0.7,0.5,1.4,1.1,1.9l2.2,1.6c0.5,0.4,0.9,0.8,1.3,1.4
			l1.3,2.3c0.4,0.6,1,1.1,1.7,1.3l2.6,0.6c0.6,0.1,1.2,0.4,1.7,0.8l2.2,1.6c0.6,0.4,1.4,0.6,2.1,0.4l2.6-0.6c0.6-0.1,1.3-0.1,1.9,0
			l2.6,0.6c0.7,0.2,1.5,0,2.1-0.4l2.2-1.6c0.5-0.4,1.1-0.6,1.7-0.8l2.6-0.6c0.7-0.2,1.4-0.6,1.7-1.3l1.3-2.3c0.3-0.6,0.7-1,1.3-1.4
			l2.2-1.6c0.6-0.4,1-1.1,1.1-1.9l0.3-2.7c0.1-0.6,0.3-1.2,0.6-1.8l1.3-2.3c0.4-0.6,0.5-1.4,0.2-2.1l-0.8-2.5
			c-0.2-0.6-0.3-1.2-0.2-1.9l0.3-2.7c0.1-0.7-0.2-1.5-0.7-2l-1.8-2c-0.4-0.5-0.7-1-0.9-1.6l-0.8-2.5c-0.2-0.7-0.8-1.3-1.4-1.6
			l-2.4-1.1c-0.6-0.3-1.1-0.6-1.5-1.1l-1.8-2c-0.5-0.6-1.2-0.9-2-0.9h-2.7c-0.6,0-1.3-0.1-1.8-0.4l-2.4-1.1c-0.7-0.3-1.5-0.3-2.2,0
			l-2.4,1.1c-0.6,0.3-1.2,0.4-1.8,0.4H22z"/>
	</g>
	<path class="st6" d="M14.6,35c0.2,0.4,0.6,0.7,1.1,0.8l0,0h0.2h1.7h1c0.6,0.9,1.6,1.5,2.8,1.5c1.2,0,2.2-0.6,2.8-1.5H39
		c0.6,0.9,1.6,1.5,2.8,1.5c1.9,0,3.4-1.5,3.4-3.4c0-0.1,0-0.3,0-0.4h0.6c0.4,0,0.8-0.3,0.8-0.8v-5.9c0-0.4-0.3-0.8-0.8-0.8h-3.9
		c-0.5,0-0.9,0.3-1.1,0.7l-1,2.4L35.8,27c-0.2-0.1-0.5-0.2-0.8-0.2H31c-0.3,0-0.5,0.2-0.5,0.5v1c0,0.5-0.4,0.9-0.9,0.9H19.1
		l-3.6,2.5h-1.2c-0.3,0-0.5,0.1-0.7,0.4c-0.1,0.2-0.2,0.5,0,0.8L14.6,35z M44,33.2c0.1,0.2,0.1,0.5,0.1,0.7c0,1.3-1.1,2.4-2.4,2.4
		c-1.3,0-2.4-1.1-2.4-2.4c0-0.2,0-0.5,0.1-0.7c0.3-1,1.2-1.7,2.3-1.7C42.8,31.6,43.7,32.3,44,33.2z M21.3,31.6
		c1.3,0,2.4,1.1,2.4,2.4c0,1.3-1.1,2.4-2.4,2.4c-1.3,0-2.4-1.1-2.4-2.4C18.9,32.6,20,31.6,21.3,31.6z M31.6,31.6l1.4,2h-0.8l-1.4-2
		H31.6z M29.9,31.6l1.4,2h-0.8l-1.4-2H29.9z M28.2,31.6l1.4,2h-0.8l-1.4-2H28.2z"/>
	<g class="st3">
		<g>
			<g>
				<polygon class="st7" points="30,17.5 30.7,19.7 33,19.7 31.1,21.1 31.9,23.3 30,21.9 28.1,23.3 28.8,21.1 26.9,19.7 29.2,19.7 
									"/>
			</g>
			<g>
				<g>
					<g>
						<path class="st7" d="M33.2,22.6c-0.1,0-0.2-0.1-0.3-0.2c0-0.2,0.1-0.3,0.2-0.3c0.3-0.1,0.4-0.1,0.4-0.1c0,0,0.8-0.3,1.2-1.1
							c0.3-0.6,0.2-1.3-0.1-2.1c0-0.1,0-0.2,0-0.3c0.1-0.1,0.1-0.1,0.2-0.1h7.6c0.2,0,0.3,0.1,0.3,0.3s-0.1,0.3-0.3,0.3h-7.2
							c0.3,0.8,0.2,1.6,0,2.2c-0.5,1-1.4,1.4-1.5,1.4c0,0,0,0,0,0C33.8,22.4,33.6,22.5,33.2,22.6C33.3,22.6,33.3,22.6,33.2,22.6z"/>
					</g>
					<g>
						<path class="st7" d="M40.8,20.1h-4.1c-0.2,0-0.3-0.1-0.3-0.3s0.1-0.3,0.3-0.3h4.1c0.2,0,0.3,0.1,0.3,0.3S41,20.1,40.8,20.1z"
							/>
					</g>
					<g>
						<path class="st7" d="M38.9,21.3h-2.5c-0.2,0-0.3-0.1-0.3-0.3s0.1-0.3,0.3-0.3h2.5c0.2,0,0.3,0.1,0.3,0.3S39.1,21.3,38.9,21.3z
							"/>
					</g>
					<g>
						<path class="st7" d="M37.1,22.5h-1.2c-0.2,0-0.3-0.1-0.3-0.3s0.1-0.3,0.3-0.3h1.2c0.2,0,0.3,0.1,0.3,0.3S37.3,22.5,37.1,22.5z
							"/>
					</g>
				</g>
				<g>
					<g>
						<path class="st7" d="M26.7,22.6C26.7,22.6,26.7,22.6,26.7,22.6c-0.4-0.1-0.6-0.2-0.6-0.2c0,0-1-0.4-1.4-1.4
							c-0.3-0.6-0.3-1.4,0-2.2h-7.2c-0.2,0-0.3-0.1-0.3-0.3s0.1-0.3,0.3-0.3H25c0.1,0,0.2,0,0.2,0.1c0.1,0.1,0.1,0.2,0,0.3
							c-0.3,0.8-0.4,1.6-0.1,2.2c0.4,0.8,1.1,1.1,1.1,1.1c0,0,0.2,0.1,0.4,0.2c0.2,0,0.2,0.2,0.2,0.3C26.9,22.5,26.8,22.6,26.7,22.6
							z"/>
					</g>
					<g>
						<path class="st7" d="M23.2,20.1h-4.1c-0.2,0-0.3-0.1-0.3-0.3s0.1-0.3,0.3-0.3h4.1c0.2,0,0.3,0.1,0.3,0.3S23.3,20.1,23.2,20.1z
							"/>
					</g>
					<g>
						<path class="st7" d="M23.5,21.3H21c-0.2,0-0.3-0.1-0.3-0.3s0.1-0.3,0.3-0.3h2.5c0.2,0,0.3,0.1,0.3,0.3S23.7,21.3,23.5,21.3z"
							/>
					</g>
					<g>
						<path class="st7" d="M24,22.5h-1.2c-0.2,0-0.3-0.1-0.3-0.3s0.1-0.3,0.3-0.3H24c0.2,0,0.3,0.1,0.3,0.3S24.2,22.5,24,22.5z"/>
					</g>
				</g>
			</g>
		</g>
	</g>
	<g class="st3">
		<g>
			<path class="st7" d="M30,41.5c0.2,0.5,0.3,0.9,0.5,1.4c0.5,0,1,0,1.5,0c-0.4,0.3-0.8,0.6-1.2,0.9c0.2,0.5,0.3,0.9,0.5,1.4
				c-0.4-0.3-0.9-0.6-1.3-0.8c-0.4,0.3-0.8,0.6-1.3,0.8c0.2-0.5,0.3-0.9,0.5-1.4c-0.4-0.3-0.8-0.6-1.2-0.9c0.5,0,1,0,1.5,0
				C29.7,42.4,29.8,41.9,30,41.5z"/>
			<g>
				<path class="st7" d="M37.3,41.8c0.1,0.2,0.2,0.5,0.4,0.7c0.3,0,0.5-0.1,0.8-0.1c-0.2,0.2-0.4,0.4-0.6,0.6
					c0.1,0.2,0.2,0.5,0.4,0.7c-0.2-0.1-0.5-0.2-0.7-0.3c-0.2,0.2-0.4,0.4-0.6,0.5c0-0.3,0.1-0.5,0.1-0.8c-0.2-0.1-0.5-0.2-0.7-0.4
					c0.3,0,0.5-0.1,0.8-0.1C37.2,42.3,37.2,42,37.3,41.8z"/>
				<path class="st7" d="M22.7,41.8c0,0.3,0.1,0.5,0.1,0.8c0.3,0,0.5,0.1,0.8,0.1c-0.2,0.1-0.5,0.2-0.7,0.4c0,0.3,0.1,0.5,0.1,0.8
					c-0.2-0.2-0.4-0.4-0.6-0.5c-0.2,0.1-0.5,0.2-0.7,0.3c0.1-0.2,0.2-0.5,0.4-0.7c-0.2-0.2-0.4-0.4-0.6-0.6c0.3,0,0.5,0.1,0.8,0.1
					C22.5,42.2,22.6,42,22.7,41.8z"/>
			</g>
			<g>
				<path class="st7" d="M26,41.7c0.1,0.4,0.2,0.7,0.3,1.1c0.4,0,0.8,0.1,1.1,0.1c-0.3,0.2-0.6,0.4-1,0.6c0.1,0.4,0.2,0.7,0.3,1.1
					c-0.3-0.2-0.6-0.5-0.9-0.7c-0.3,0.2-0.7,0.4-1,0.6c0.2-0.3,0.3-0.7,0.5-1c-0.3-0.2-0.6-0.5-0.9-0.7c0.4,0,0.8,0.1,1.1,0.1
					C25.7,42.4,25.9,42.1,26,41.7z"/>
				<path class="st7" d="M34,41.7c0.1,0.3,0.3,0.7,0.4,1c0.4,0,0.8-0.1,1.1-0.1c-0.3,0.2-0.6,0.5-0.9,0.7c0.2,0.3,0.3,0.7,0.5,1
					c-0.3-0.2-0.7-0.4-1-0.6c-0.3,0.2-0.6,0.5-0.9,0.7c0.1-0.4,0.2-0.7,0.3-1.1c-0.3-0.2-0.6-0.4-1-0.6c0.4,0,0.8,0,1.1-0.1
					C33.8,42.4,33.9,42.1,34,41.7z"/>
			</g>
		</g>
	</g>
</g>
<g class="st0">
	<g class="st3">
		<path class="st11" d="M36.3,6L36.3,6c1.7,1.7,3.9,2.6,6.3,2.6h0c4.9,0,8.9,4,8.9,8.9v0c0,2.4,0.9,4.6,2.6,6.3l0,0
			c3.5,3.5,3.5,9.1,0,12.5l0,0c-1.7,1.7-2.6,3.9-2.6,6.3v0c0,4.9-4,8.9-8.9,8.9h0c-2.4,0-4.6,0.9-6.3,2.6l0,0
			c-3.5,3.5-9.1,3.5-12.5,0l0,0c-1.7-1.7-3.9-2.6-6.3-2.6h0c-4.9,0-8.9-4-8.9-8.9v0c0-2.4-0.9-4.6-2.6-6.3l0,0
			c-3.5-3.5-3.5-9.1,0-12.5l0,0c1.7-1.7,2.6-3.9,2.6-6.3v0c0-4.9,4-8.9,8.9-8.9h0c2.4,0,4.6-0.9,6.3-2.6l0,0
			C27.2,2.6,32.8,2.6,36.3,6z"/>
		<path class="st12" d="M30,56.7c-2.3,0-4.6-0.9-6.3-2.6c-1.7-1.7-3.9-2.6-6.2-2.6c-4.9,0-9-4-9-9c0-2.3-0.9-4.5-2.6-6.2
			c-1.7-1.7-2.6-3.9-2.6-6.3s0.9-4.6,2.6-6.3c1.7-1.7,2.6-3.9,2.6-6.2c0-4.9,4-9,9-9c2.3,0,4.5-0.9,6.2-2.6c1.7-1.7,3.9-2.6,6.3-2.6
			s4.6,0.9,6.3,2.6l0,0c1.7,1.7,3.9,2.6,6.2,2.6c4.9,0,9,4,9,9c0,2.3,0.9,4.5,2.6,6.2c3.5,3.5,3.5,9.2,0,12.7
			c-1.7,1.7-2.6,3.9-2.6,6.2c0,4.9-4,9-9,9c-2.3,0-4.5,0.9-6.2,2.6C34.6,55.8,32.3,56.7,30,56.7z M30,3.5c-2.3,0-4.5,0.9-6.2,2.6
			c-1.7,1.7-3.9,2.6-6.3,2.6c-4.8,0-8.8,3.9-8.8,8.8c0,2.4-0.9,4.6-2.6,6.3c-1.7,1.7-2.6,3.9-2.6,6.2c0,2.3,0.9,4.5,2.6,6.2
			c1.7,1.7,2.6,3.9,2.6,6.3c0,4.8,3.9,8.8,8.8,8.8c2.4,0,4.6,0.9,6.3,2.6c1.7,1.7,4,2.6,6.2,2.6c2.2,0,4.5-0.9,6.2-2.6
			c1.7-1.7,3.9-2.6,6.3-2.6c4.8,0,8.8-3.9,8.8-8.8c0-2.4,0.9-4.6,2.6-6.3c3.4-3.4,3.4-9,0-12.4c-1.7-1.7-2.6-3.9-2.6-6.3
			c0-4.8-3.9-8.8-8.8-8.8c-2.4,0-4.6-0.9-6.3-2.6l0,0C34.5,4.4,32.3,3.5,30,3.5z"/>
	</g>
	<g class="st13">
		<defs>
			<path id="SVGID_1_" class="st14" d="M36.2,6.2L36.2,6.2c1.6,1.6,3.9,2.6,6.2,2.6h0c4.9,0,8.8,3.9,8.8,8.8v0
				c0,2.3,0.9,4.6,2.6,6.2l0,0c3.4,3.4,3.4,9,0,12.4l0,0c-1.6,1.6-2.6,3.9-2.6,6.2v0c0,4.9-3.9,8.8-8.8,8.8h0
				c-2.3,0-4.6,0.9-6.2,2.6l0,0c-3.4,3.4-9,3.4-12.4,0l0,0c-1.6-1.6-3.9-2.6-6.2-2.6h0c-4.9,0-8.8-3.9-8.8-8.8v0
				c0-2.3-0.9-4.6-2.6-6.2l0,0c-3.4-3.4-3.4-9,0-12.4l0,0c1.6-1.6,2.6-3.9,2.6-6.2v0c0-4.9,3.9-8.8,8.8-8.8h0c2.3,0,4.6-0.9,6.2-2.6
				l0,0C27.2,2.8,32.8,2.8,36.2,6.2z"/>
		</defs>
		<clipPath id="SVGID_2_">
			<use xlink:href="#SVGID_1_"  style="overflow:visible;"/>
		</clipPath>
		<g class="st15">
			<polygon class="st16" points="30,30 26.3,15 22.6,0 30,0 37.5,0 33.8,15 			"/>
			<polygon class="st16" points="30,30 41.1,19.2 52.2,8.4 55.9,14.9 59.7,21.4 44.9,25.7 			"/>
			<polygon class="st16" points="30,30 44.9,34.1 59.8,38.2 56.1,44.7 52.4,51.2 41.2,40.6 			"/>
			<polygon class="st16" points="30,30 34,44.9 37.9,59.8 30.4,59.9 22.9,60 26.5,45 			"/>
			<polygon class="st16" points="30,30 19.1,40.9 8.2,51.7 4.4,45.3 0.5,38.9 15.3,34.4 			"/>
			<polygon class="st16" points="30,30 15.1,26 0.2,22 3.8,15.5 7.5,8.9 18.7,19.5 			"/>
		</g>
	</g>
	<g class="st8">
		<path class="st12" d="M30,54.1c-2.3,0-4.5-0.9-6.1-2.5c-1.3-1.3-3-2-4.8-2c-4.8,0-8.6-3.9-8.6-8.6c0-1.8-0.7-3.5-2-4.8
			C6.9,34.5,6,32.3,6,30c0-2.3,0.9-4.5,2.5-6.1c1.3-1.3,2-3,2-4.8c0-4.8,3.9-8.6,8.6-8.6c1.8,0,3.5-0.7,4.8-2C25.5,6.9,27.7,6,30,6
			c2.3,0,4.5,0.9,6.1,2.5v0c1.3,1.3,3,2,4.8,2c4.8,0,8.6,3.9,8.6,8.6c0,1.8,0.7,3.5,2,4.8c1.6,1.6,2.5,3.8,2.5,6.1
			c0,2.3-0.9,4.5-2.5,6.1c-1.3,1.3-2,3-2,4.8c0,4.8-3.9,8.6-8.6,8.6c-1.8,0-3.5,0.7-4.8,2C34.5,53.2,32.3,54.1,30,54.1z M30,7.9
			c-1.7,0-3.5,0.7-4.8,2c-1.6,1.6-3.8,2.5-6.1,2.5c-3.7,0-6.8,3-6.8,6.8c0,2.3-0.9,4.5-2.5,6.1c-2.6,2.6-2.6,6.9,0,9.5
			c1.6,1.6,2.5,3.8,2.5,6.1c0,3.7,3,6.8,6.8,6.8c2.3,0,4.5,0.9,6.1,2.5c2.6,2.6,6.9,2.6,9.5,0c1.6-1.6,3.8-2.5,6.1-2.5
			c3.7,0,6.8-3,6.8-6.8c0-2.3,0.9-4.5,2.5-6.1c2.6-2.6,2.6-6.9,0-9.5c-1.6-1.6-2.5-3.8-2.5-6.1c0-3.7-3-6.8-6.8-6.8
			c-2.3,0-4.5-0.9-6.1-2.5h0C33.5,8.5,31.7,7.9,30,7.9z"/>
	</g>
	<g class="st3">
		<path class="st7" d="M15,33.6h0.6c0.7-4.6,4.3-4.1,7.7-4.1c0,0,0.1,0,0.1,0s4.1-3.2,7.9-3.7c2.7-0.3,5,0.7,6.9,1.5
			c0.8,0.4,1.6,0.7,2.2,0.9c0.2,0,0.3,0.1,0.5,0.1l0.5-0.9l-1.1-0.2c-0.3,0-0.5-0.3-0.5-0.6l0-1.3c0-0.2,0.1-0.4,0.3-0.5
			c0.2-0.1,0.4-0.1,0.6-0.1l4.4,1.7c0.2,0.1,0.3,0.2,0.3,0.4l0,0.3c0,0.2,0,0.4-0.2,0.5c-0.1,0.1-0.3,0.2-0.5,0.2l-1.1-0.2l-0.5,0.8
			c0.1,0,0.2,0,0.4,0c0.3,0,0.6,0.2,0.8,0.4c1.3,2.1,1.8,5-1.5,6.2h-0.4c-0.5,1.6-2,2.7-3.8,2.7c-1.8,0-3.2-1.1-3.8-2.7h-9.9
			c-0.5,1.6-2,2.7-3.8,2.7c-1.6,0-3.1-1-3.7-2.4H15c-0.2,0-0.3-0.1-0.3-0.3v-1.4C14.7,33.7,14.8,33.6,15,33.6z M38.6,36.4
			c0.5,0,1.1-0.2,1.5-0.5c0.6-0.4,1-1.1,1-1.9c0-1.3-1.1-2.4-2.4-2.4c-1.3,0-2.4,1.1-2.4,2.4c0,0.8,0.4,1.5,1,1.9
			C37.6,36.3,38.1,36.4,38.6,36.4z M35.5,27.7l0.3,1.6c0.1,0.3,0.3,0.6,0.7,0.6h0.4c0.3,0,0.6-0.3,0.6-0.6v-0.8
			c0-0.3-0.2-0.6-0.5-0.7c-0.3-0.1-0.7-0.3-1-0.4C35.7,27.2,35.5,27.4,35.5,27.7z M25.3,29.7c0,0.1,0.1,0.1,0.2,0.1h8.6
			c0.3,0,0.5-0.3,0.5-0.6l-0.3-1.9c-0.1-0.3-0.3-0.6-0.6-0.7c-0.6-0.1-1.3-0.1-2,0c-2.3,0.3-5.2,2-6.2,2.8
			C25.3,29.5,25.3,29.6,25.3,29.7z M21.2,36.4c0.5,0,1.1-0.2,1.5-0.5c0.6-0.4,1-1.1,1-1.9c0-1.3-1.1-2.4-2.4-2.4
			c-1.3,0-2.4,1.1-2.4,2.4c0,0.8,0.4,1.5,1,1.9C20.1,36.3,20.6,36.4,21.2,36.4z"/>
		<path class="st7" d="M25.3,36.7l0.2-0.5c0.1-0.2,0.3-0.3,0.4-0.3h8c0.2,0,0.4,0.1,0.4,0.3l0.2,0.5c0,0,0,0.1,0,0.1
			c0,0.1-0.1,0.2-0.2,0.2h-9.1c-0.1,0-0.2-0.1-0.2-0.2C25.3,36.8,25.3,36.7,25.3,36.7z"/>
	</g>
	<g class="st3">
		<polygon class="st7" points="30,18.9 30.7,20.4 32.4,20.7 31.2,21.8 31.5,23.5 30,22.7 28.5,23.5 28.8,21.8 27.6,20.7 29.2,20.4 
					"/>
		<g>
			<path class="st7" d="M38.4,20.3H34c-0.2,0-0.3-0.1-0.3-0.3l0,0c0-0.2,0.1-0.3,0.3-0.3h4.4c0.2,0,0.3,0.1,0.3,0.3v0
				C38.7,20.2,38.6,20.3,38.4,20.3z"/>
			<path class="st7" d="M26,20.3h-4.4c-0.2,0-0.3-0.1-0.3-0.3l0,0c0-0.2,0.1-0.3,0.3-0.3H26c0.2,0,0.3,0.1,0.3,0.3v0
				C26.3,20.2,26.2,20.3,26,20.3z"/>
			<path class="st7" d="M36.6,21.5H34c-0.2,0-0.3-0.1-0.3-0.3v0c0-0.2,0.1-0.3,0.3-0.3h2.6c0.2,0,0.3,0.1,0.3,0.3v0
				C36.9,21.4,36.8,21.5,36.6,21.5z"/>
			<path class="st7" d="M26,21.5h-2.6c-0.2,0-0.3-0.1-0.3-0.3v0c0-0.2,0.1-0.3,0.3-0.3H26c0.2,0,0.3,0.1,0.3,0.3v0
				C26.3,21.4,26.2,21.5,26,21.5z"/>
			<path class="st7" d="M34.8,22.7H34c-0.2,0-0.3-0.1-0.3-0.3l0,0c0-0.2,0.1-0.3,0.3-0.3h0.8c0.2,0,0.3,0.1,0.3,0.3v0
				C35.1,22.6,35,22.7,34.8,22.7z"/>
			<path class="st7" d="M26,22.7h-0.8c-0.2,0-0.3-0.1-0.3-0.3v0c0-0.2,0.1-0.3,0.3-0.3H26c0.2,0,0.3,0.1,0.3,0.3v0
				C26.3,22.6,26.2,22.7,26,22.7z"/>
		</g>
	</g>
	<g class="st3">
		<g>
			<path class="st7" d="M30,41.7c0.1,0.3,0.2,0.7,0.3,1c0.4,0,0.7,0,1.1,0c-0.3,0.2-0.6,0.4-0.9,0.7c0.1,0.3,0.3,0.7,0.4,1
				c-0.3-0.2-0.6-0.4-1-0.6c-0.3,0.2-0.6,0.4-1,0.6c0.1-0.3,0.3-0.7,0.4-1c-0.3-0.2-0.6-0.4-0.9-0.7c0.4,0,0.7,0,1.1,0
				C29.8,42.3,29.9,42,30,41.7z"/>
			<g>
				<path class="st7" d="M27.1,41.8c0.1,0.3,0.1,0.5,0.2,0.8c0.3,0,0.6,0.1,0.8,0.1c-0.2,0.1-0.5,0.3-0.7,0.4
					c0.1,0.3,0.1,0.5,0.2,0.8c-0.2-0.2-0.4-0.4-0.6-0.5c-0.3,0.1-0.5,0.2-0.8,0.4c0.1-0.2,0.3-0.5,0.4-0.7c-0.2-0.2-0.4-0.4-0.6-0.6
					c0.3,0,0.6,0.1,0.8,0.1C26.9,42.3,27,42,27.1,41.8z"/>
				<path class="st7" d="M32.9,41.8c0.1,0.2,0.2,0.5,0.4,0.7c0.3,0,0.6-0.1,0.8-0.1c-0.2,0.2-0.4,0.4-0.6,0.6
					c0.1,0.2,0.2,0.5,0.4,0.7c-0.3-0.1-0.5-0.2-0.8-0.4c-0.2,0.2-0.4,0.4-0.6,0.5c0.1-0.3,0.1-0.5,0.2-0.8c-0.2-0.1-0.5-0.3-0.7-0.4
					c0.3,0,0.6,0,0.8-0.1C32.8,42.3,32.9,42.1,32.9,41.8z"/>
			</g>
		</g>
	</g>
</g>
<g class="st0">
	<g class="st3">
		<path class="st17" d="M36.3,6L36.3,6c1.7,1.7,3.9,2.6,6.3,2.6h0c4.9,0,8.9,4,8.9,8.9v0c0,2.4,0.9,4.6,2.6,6.3l0,0
			c3.5,3.5,3.5,9.1,0,12.5l0,0c-1.7,1.7-2.6,3.9-2.6,6.3v0c0,4.9-4,8.9-8.9,8.9h0c-2.4,0-4.6,0.9-6.3,2.6l0,0
			c-3.5,3.5-9.1,3.5-12.5,0l0,0c-1.7-1.7-3.9-2.6-6.3-2.6h0c-4.9,0-8.9-4-8.9-8.9v0c0-2.4-0.9-4.6-2.6-6.3l0,0
			c-3.5-3.5-3.5-9.1,0-12.5l0,0c1.7-1.7,2.6-3.9,2.6-6.3v0c0-4.9,4-8.9,8.9-8.9h0c2.4,0,4.6-0.9,6.3-2.6l0,0
			C27.2,2.6,32.8,2.6,36.3,6z"/>
		<path class="st4" d="M30,56.8c-2.3,0-4.6-0.9-6.4-2.6c-1.6-1.6-3.8-2.5-6.1-2.5c-5,0-9.1-4.1-9.1-9.1c0-2.3-0.9-4.5-2.5-6.1
			c-1.7-1.7-2.7-4-2.7-6.4c0-2.4,0.9-4.7,2.7-6.4c1.6-1.6,2.5-3.8,2.5-6.1c0-5,4.1-9.1,9.1-9.1c2.3,0,4.5-0.9,6.1-2.5
			c1.7-1.7,4-2.7,6.4-2.7c2.4,0,4.7,0.9,6.4,2.7c1.6,1.6,3.8,2.5,6.1,2.5c5,0,9.1,4.1,9.1,9.1c0,2.3,0.9,4.5,2.5,6.1
			c3.5,3.5,3.5,9.3,0,12.8c-1.6,1.6-2.5,3.8-2.5,6.1c0,5-4.1,9.1-9.1,9.1c-2.3,0-4.5,0.9-6.1,2.5C34.6,55.9,32.3,56.8,30,56.8z
			 M30,3.6c-2.3,0-4.5,0.9-6.1,2.5c-1.7,1.7-4,2.7-6.4,2.7c-4.8,0-8.7,3.9-8.7,8.7c0,2.4-0.9,4.7-2.7,6.4c-1.6,1.6-2.5,3.8-2.5,6.1
			c0,2.3,0.9,4.5,2.5,6.1c1.7,1.7,2.7,4,2.7,6.4c0,4.8,3.9,8.7,8.7,8.7c2.4,0,4.7,0.9,6.4,2.7c3.4,3.4,8.9,3.4,12.3,0
			c1.7-1.7,4-2.7,6.4-2.7c4.8,0,8.7-3.9,8.7-8.7c0-2.4,0.9-4.7,2.7-6.4c3.4-3.4,3.4-8.9,0-12.3c-1.7-1.7-2.7-4-2.7-6.4
			c0-4.8-3.9-8.7-8.7-8.7c-2.4,0-4.7-0.9-6.4-2.7l0,0C34.5,4.5,32.3,3.6,30,3.6z"/>
	</g>
	<g class="st3">
		<path class="st4" d="M30,54.8c-2.3,0-4.6-0.9-6.3-2.6c-1.3-1.3-3.1-2-4.9-2c-4.9,0-8.9-4-8.9-8.9c0-1.9-0.7-3.6-2-4.9
			c-3.5-3.5-3.5-9.1,0-12.6c1.3-1.3,2-3.1,2-4.9c0-4.9,4-8.9,8.9-8.9c1.9,0,3.6-0.7,4.9-2c3.5-3.5,9.1-3.5,12.6,0h0
			c1.3,1.3,3.1,2,4.9,2c4.9,0,8.9,4,8.9,8.9c0,1.9,0.7,3.6,2,4.9c3.5,3.5,3.5,9.1,0,12.6c-1.3,1.3-2,3.1-2,4.9c0,4.9-4,8.9-8.9,8.9
			c-1.9,0-3.6,0.7-4.9,2C34.6,53.9,32.3,54.8,30,54.8z M30,7.1c-1.8,0-3.6,0.7-4.9,2c-1.7,1.7-3.9,2.6-6.3,2.6c-3.9,0-7,3.1-7,7
			c0,2.4-0.9,4.6-2.6,6.3c-2.7,2.7-2.7,7.2,0,9.9c1.7,1.7,2.6,3.9,2.6,6.3c0,3.9,3.1,7,7,7c2.4,0,4.6,0.9,6.3,2.6
			c2.7,2.7,7.2,2.7,9.9,0c1.7-1.7,3.9-2.6,6.3-2.6c3.9,0,7-3.1,7-7c0-2.4,0.9-4.6,2.6-6.3c2.7-2.7,2.7-7.2,0-9.9
			c-1.7-1.7-2.6-3.9-2.6-6.3c0-3.9-3.1-7-7-7c-2.4,0-4.6-0.9-6.3-2.6l0,0C33.6,7.8,31.8,7.1,30,7.1z"/>
	</g>
	<g class="st3">
		<path class="st4" d="M15,32.2h0.6c0.7-4.6,4.3-4.1,7.7-4.1c0,0,0.1,0,0.1,0s4.1-3.2,7.9-3.7c2.7-0.3,5,0.7,6.9,1.5
			c0.8,0.4,1.6,0.7,2.2,0.9c0.2,0,0.3,0.1,0.5,0.1l0.5-0.9l-1.1-0.2c-0.3,0-0.5-0.3-0.5-0.6l0-1.3c0-0.2,0.1-0.4,0.3-0.5
			c0.2-0.1,0.4-0.1,0.6-0.1l4.4,1.7c0.2,0.1,0.3,0.2,0.3,0.4l0,0.3c0,0.2,0,0.4-0.2,0.5c-0.1,0.1-0.3,0.2-0.5,0.2l-1.1-0.2l-0.5,0.8
			c0.1,0,0.2,0,0.4,0c0.3,0,0.6,0.2,0.8,0.4c1.3,2.1,1.8,5-1.5,6.2h-0.4c-0.5,1.6-2,2.7-3.8,2.7c-1.8,0-3.2-1.1-3.8-2.7h-9.9
			c-0.5,1.6-2,2.7-3.8,2.7c-1.6,0-3.1-1-3.7-2.4H15c-0.2,0-0.3-0.1-0.3-0.3v-1.4C14.7,32.3,14.8,32.2,15,32.2z M38.6,35.1
			c0.5,0,1.1-0.2,1.5-0.5c0.6-0.4,1-1.1,1-1.9c0-1.3-1.1-2.4-2.4-2.4c-1.3,0-2.4,1.1-2.4,2.4c0,0.8,0.4,1.5,1,1.9
			C37.6,34.9,38.1,35.1,38.6,35.1z M35.5,26.3l0.3,1.6c0.1,0.3,0.3,0.6,0.7,0.6h0.4c0.3,0,0.6-0.3,0.6-0.6v-0.8
			c0-0.3-0.2-0.6-0.5-0.7c-0.3-0.1-0.7-0.3-1-0.4C35.7,25.8,35.5,26,35.5,26.3z M25.3,28.3c0,0.1,0.1,0.1,0.2,0.1h8.6
			c0.3,0,0.5-0.3,0.5-0.6L34.3,26c-0.1-0.3-0.3-0.6-0.6-0.7c-0.6-0.1-1.3-0.1-2,0c-2.3,0.3-5.2,2-6.2,2.8
			C25.3,28.1,25.3,28.2,25.3,28.3z M21.2,35.1c0.5,0,1.1-0.2,1.5-0.5c0.6-0.4,1-1.1,1-1.9c0-1.3-1.1-2.4-2.4-2.4
			c-1.3,0-2.4,1.1-2.4,2.4c0,0.8,0.4,1.5,1,1.9C20.1,34.9,20.6,35.1,21.2,35.1z"/>
		<path class="st4" d="M25.3,35.3l0.2-0.5c0.1-0.2,0.3-0.3,0.4-0.3h8c0.2,0,0.4,0.1,0.4,0.3l0.2,0.5c0,0,0,0.1,0,0.1
			c0,0.1-0.1,0.2-0.2,0.2h-9.1c-0.1,0-0.2-0.1-0.2-0.2C25.3,35.4,25.3,35.3,25.3,35.3z"/>
	</g>
</g>
<g class="st0">
	<circle class="st5" cx="30" cy="30" r="26.6"/>
	<g class="st8">
		<path class="st9" d="M30,54.3C16.6,54.3,5.7,43.4,5.7,30S16.6,5.7,30,5.7S54.3,16.6,54.3,30S43.4,54.3,30,54.3z M30,6.6
			C17.1,6.6,6.6,17.1,6.6,30S17.1,53.4,30,53.4S53.4,42.9,53.4,30S42.9,6.6,30,6.6z"/>
	</g>
	<g class="st3">
		<polygon class="st7" points="30,37.8 30.6,39 32,39.2 31,40.2 31.2,41.6 30,40.9 28.7,41.6 29,40.2 28,39.2 29.4,39 		"/>
		<path class="st7" d="M35,40h-1.8c-0.2,0-0.3-0.2-0.3-0.3v0c0-0.2,0.2-0.3,0.3-0.3H35c0.2,0,0.3,0.2,0.3,0.3v0
			C35.4,39.9,35.2,40,35,40z"/>
		<path class="st7" d="M26.7,40H25c-0.2,0-0.3-0.2-0.3-0.3v0c0-0.2,0.2-0.3,0.3-0.3h1.8c0.2,0,0.3,0.2,0.3,0.3v0
			C27.1,39.9,26.9,40,26.7,40z"/>
	</g>
	<g class="st3">
		<path class="st7" d="M18,38.1C18,38.1,17.9,38.1,18,38.1c-0.2,0-0.4-0.2-0.3-0.4l0.9-5.3c0.2-1,0.8-1.9,1.8-2.2l5.6-2.1l0.7-1.2
			c-0.5-0.7-0.9-1.4-1.1-2l-0.1-0.2l-0.3-0.2c-0.1,0-0.1-0.1-0.2-0.2c-0.4-1-0.5-1.9-0.5-2.8c0-0.1,0.1-0.2,0.1-0.3l0.2-0.1l0-0.2
			c-0.1-1.3-0.2-2.5,0.4-4c0.3-0.8,0.7-1.3,1.5-1.8c0.9-0.5,1.1-0.5,2-0.5c0.1,0,0.2,0,0.3,0c2.2-0.7,3.8,0.2,4.8,1
			c0.5,0.4,1.3,1.8,1.3,2.1c0.2,1.1,0.2,2.2,0.1,3.3l0,0.2l0.1,0.1c0.1,0.1,0.1,0.2,0.1,0.3c0,0.9-0.2,1.8-0.5,2.8
			c0,0.1-0.1,0.1-0.2,0.2l-0.3,0.2l-0.1,0.2c-0.2,0.6-0.6,1.4-1.1,2l0.7,1.2l5.6,2.1c1,0.4,1.6,1.2,1.8,2.2l0.9,5.3
			c0,0.2-0.1,0.4-0.3,0.4c-0.2,0-0.4-0.1-0.4-0.3l-0.9-5.3c-0.1-0.8-0.6-1.4-1.4-1.7l-5.4-2L31.3,34c0,0.1,0,0.2-0.1,0.2l-0.9,1.9
			c-0.1,0.1-0.2,0.2-0.3,0.2c-0.1,0-0.2-0.1-0.3-0.2L26,28.7l-5.4,2c-0.7,0.3-1.2,0.9-1.4,1.7l-0.9,5.3C18.3,38,18.1,38.1,18,38.1z
			 M29.3,33.8l0.7,1.3l0.7-1.3c-0.1-1.6-0.2-2.3-0.2-2.5l0,0c0-0.1-0.1-0.3,0.1-0.5c0,0,0,0,0.1-0.1c0.2-0.2,0.3-0.3,0.3-0.4
			c0-0.2,0-0.6-0.1-0.8c-0.5,0.1-1.3,0.1-1.8,0C29,29.7,29,30.1,29,30.4c0,0.1,0.2,0.2,0.3,0.4c0,0,0.1,0.1,0.1,0.1
			c0.2,0.2,0.1,0.4,0.1,0.5l0,0C29.5,31.5,29.4,32.3,29.3,33.8z M31.1,31.2L31.1,31.2c0,0.2,0.1,0.8,0.1,1.5l2.2-4.3l-0.6-1
			c-0.5,0.6-1.1,1-1.8,1.3c0,0,0,0-0.1,0c-0.7,0.1-1.4,0.1-2.1,0c0,0,0,0-0.1,0c-0.6-0.3-1.2-0.7-1.8-1.3l-0.6,1l2.2,4.3
			c0-0.7,0.1-1.2,0.1-1.4l0,0l0,0c-0.4-0.4-0.5-0.6-0.5-0.7c0-0.2,0-1.1,0.3-1.4c0.1-0.1,0.3-0.2,0.4-0.2c0,0,0,0,0.1,0
			c0.5,0.1,1.3,0.1,1.8,0c0,0,0,0,0.1,0c0.1,0,0.3,0,0.4,0.2c0.3,0.3,0.3,1.2,0.3,1.4C31.6,30.6,31.5,30.8,31.1,31.2L31.1,31.2z
			 M29,30.3L29,30.3L29,30.3z M31,30.3L31,30.3L31,30.3z M29.1,28c0.6,0.1,1.2,0.1,1.8,0c0.6-0.3,1.2-0.8,1.7-1.4
			c0,0,0.1-0.1,0.1-0.1c0.5-0.6,0.9-1.3,1.1-1.9l0.1-0.3c0-0.1,0.1-0.2,0.2-0.2l0.3-0.2c0.3-0.8,0.4-1.5,0.4-2.3l-0.4,0.2l-0.2,1
			c0,0.1-0.1,0.2-0.2,0.2l-0.6,0.2c-0.1,0-0.2,0-0.3,0C33.1,23.1,33,23,33,22.9c0-0.1,0-0.2,0-0.4c0.1-1.7,0-2.2-0.1-2.3
			c-0.2-0.1-0.8-0.1-1.4,0c-1.2,0.1-2.9,0.2-4.1-0.7c-0.1-0.1-0.2-0.1-0.2-0.1C27,19.5,26.8,20,27,22.9l0,0c0,0.1,0,0.2-0.1,0.3
			c-0.1,0.1-0.2,0.1-0.3,0L25.9,23c-0.1,0-0.2-0.1-0.2-0.2l-0.2-1l-0.3-0.1l0,0c0,0.7,0.2,1.5,0.4,2.3l0.3,0.2
			c0.1,0,0.1,0.1,0.2,0.2l0.1,0.3c0.2,0.6,0.6,1.3,1.1,1.9c0,0,0.1,0.1,0.1,0.1C27.8,27.2,28.5,27.7,29.1,28z M32.3,19.5
			c0.4,0,0.7,0,0.9,0.2c0.5,0.2,0.5,1.1,0.5,2.7l0.2-0.8c0-0.1,0.1-0.2,0.2-0.2l0.3-0.2c0-0.1,0-0.1,0.1-0.2c0,0,0.1-0.1,0.1-0.1
			c0-1,0.1-2.1-0.1-3.1c-0.1-0.2-0.7-1.4-1.1-1.7c-0.9-0.7-2.3-1.4-4.2-0.8c-0.1,0-0.1,0-0.2,0c-0.1,0-0.2,0-0.3,0
			c-0.8,0-0.9,0-1.7,0.4c-0.7,0.4-1,0.8-1.2,1.4c-0.5,1.4-0.4,2.5-0.3,3.8l0,0c0,0,0.1,0.1,0.1,0.1c0,0,0,0.1,0.1,0.1l0.3,0.1
			c0.1,0,0.2,0.1,0.2,0.3l0.1,0.7c-0.1-1.8,0-3,0.6-3.3c0.2-0.1,0.5-0.2,0.9,0.1c1,0.8,2.5,0.7,3.7,0.6
			C31.8,19.5,32.1,19.5,32.3,19.5z M37.7,35.4H34c-0.2,0-0.3-0.1-0.3-0.3s0.1-0.3,0.3-0.3h3.7c0.2,0,0.3,0.1,0.3,0.3
			S37.9,35.4,37.7,35.4z"/>
	</g>
</g>
<g class="st0">
	<circle class="st1" cx="30" cy="30" r="26.6"/>
	<g class="st3">
		<path class="st4" d="M30,54.3C16.6,54.3,5.7,43.4,5.7,30S16.6,5.7,30,5.7S54.3,16.6,54.3,30S43.4,54.3,30,54.3z M30,6.6
			C17.1,6.6,6.6,17.1,6.6,30S17.1,53.4,30,53.4S53.4,42.9,53.4,30S42.9,6.6,30,6.6z"/>
	</g>
	<g class="st3">
		<path class="st4" d="M18,40C18,40,17.9,40,18,40c-0.2,0-0.4-0.2-0.3-0.4l0.9-5.3c0.2-1,0.8-1.9,1.8-2.2l5.6-2.1l0.7-1.2
			c-0.5-0.7-0.9-1.4-1.1-2l-0.1-0.2l-0.3-0.2c-0.1,0-0.1-0.1-0.2-0.2c-0.4-1-0.5-1.9-0.5-2.8c0-0.1,0.1-0.2,0.1-0.3l0.2-0.1l0-0.2
			c-0.1-1.3-0.2-2.5,0.4-4c0.3-0.8,0.7-1.3,1.5-1.8c0.9-0.5,1.1-0.5,2-0.5c0.1,0,0.2,0,0.3,0c2.2-0.7,3.8,0.2,4.8,1
			c0.5,0.4,1.3,1.8,1.3,2.1c0.2,1.1,0.2,2.2,0.1,3.3l0,0.2l0.1,0.1c0.1,0.1,0.1,0.2,0.1,0.3c0,0.9-0.2,1.8-0.5,2.8
			c0,0.1-0.1,0.1-0.2,0.2l-0.3,0.2l-0.1,0.2c-0.2,0.6-0.6,1.4-1.1,2l0.7,1.3l5.6,2.1c1,0.4,1.6,1.2,1.8,2.2l0.9,5.3
			c0,0.2-0.1,0.4-0.3,0.4c-0.2,0-0.4-0.1-0.4-0.3l-0.9-5.3c-0.1-0.8-0.6-1.4-1.4-1.7l-5.4-2l-2.7,5.2c0,0.1,0,0.2-0.1,0.2L30.3,38
			c-0.1,0.1-0.2,0.2-0.3,0.2c-0.1,0-0.2-0.1-0.3-0.2L26,30.6l-5.4,2c-0.7,0.3-1.2,0.9-1.4,1.7l-0.9,5.3C18.3,39.9,18.1,40,18,40z
			 M29.3,35.7l0.7,1.3l0.7-1.3c-0.1-1.6-0.2-2.3-0.2-2.5l0,0c0-0.1-0.1-0.3,0.1-0.5c0,0,0,0,0.1-0.1c0.2-0.2,0.3-0.3,0.3-0.4
			c0-0.2,0-0.6-0.1-0.8c-0.5,0.1-1.3,0.1-1.8,0C29,31.6,29,32,29,32.3c0,0.1,0.2,0.2,0.3,0.4c0,0,0.1,0.1,0.1,0.1
			c0.2,0.2,0.1,0.4,0.1,0.5l0,0C29.5,33.4,29.4,34.2,29.3,35.7z M31.1,33.1L31.1,33.1c0,0.2,0.1,0.8,0.1,1.5l2.2-4.3l-0.6-1
			c-0.5,0.6-1.1,1-1.8,1.3c0,0,0,0-0.1,0c-0.7,0.1-1.4,0.1-2.1,0c0,0,0,0-0.1,0c-0.6-0.3-1.2-0.7-1.8-1.3l-0.6,1l2.2,4.3
			c0-0.7,0.1-1.2,0.1-1.4l0,0l0,0c-0.4-0.4-0.5-0.6-0.5-0.7c0-0.2,0-1.1,0.3-1.4c0.1-0.1,0.3-0.2,0.4-0.2c0,0,0,0,0.1,0
			c0.5,0.1,1.3,0.1,1.8,0c0,0,0,0,0.1,0c0.1,0,0.3,0,0.4,0.2c0.3,0.3,0.3,1.2,0.3,1.4C31.6,32.5,31.5,32.7,31.1,33.1L31.1,33.1z
			 M29,32.2L29,32.2z M31,32.2L31,32.2L31,32.2z M29.1,29.9c0.6,0.1,1.2,0.1,1.8,0c0.6-0.3,1.2-0.8,1.7-1.4c0,0,0.1-0.1,0.1-0.1
			c0.5-0.6,0.9-1.3,1.1-1.9l0.1-0.3c0-0.1,0.1-0.2,0.2-0.2l0.3-0.2c0.3-0.8,0.4-1.5,0.4-2.3l-0.4,0.2l-0.2,1c0,0.1-0.1,0.2-0.2,0.2
			l-0.6,0.2c-0.1,0-0.2,0-0.3,0C33.1,25,33,24.9,33,24.8c0-0.1,0-0.2,0-0.4c0.1-1.7,0-2.2-0.1-2.3c-0.2-0.1-0.8-0.1-1.4,0
			c-1.2,0.1-2.9,0.2-4.1-0.7c-0.1-0.1-0.2-0.1-0.2-0.1c-0.2,0.1-0.4,0.6-0.2,3.5l0,0c0,0.1,0,0.2-0.1,0.3c-0.1,0.1-0.2,0.1-0.3,0
			l-0.6-0.3c-0.1,0-0.2-0.1-0.2-0.2l-0.2-1l-0.3-0.1l0,0c0,0.7,0.2,1.5,0.4,2.3l0.3,0.2c0.1,0,0.1,0.1,0.2,0.2l0.1,0.3
			c0.2,0.6,0.6,1.3,1.1,1.9c0,0,0.1,0.1,0.1,0.1C27.8,29.1,28.5,29.6,29.1,29.9z M32.3,21.4c0.4,0,0.7,0,0.9,0.2
			c0.5,0.2,0.5,1.1,0.5,2.7l0.2-0.8c0-0.1,0.1-0.2,0.2-0.2l0.3-0.2c0-0.1,0-0.1,0.1-0.2c0,0,0.1-0.1,0.1-0.1c0-1,0.1-2.1-0.1-3.1
			c-0.1-0.2-0.7-1.4-1.1-1.7c-0.9-0.7-2.3-1.4-4.2-0.8c-0.1,0-0.1,0-0.2,0c-0.1,0-0.2,0-0.3,0c-0.8,0-0.9,0-1.7,0.4
			c-0.7,0.4-1,0.8-1.2,1.4c-0.5,1.4-0.4,2.5-0.3,3.8l0,0c0,0,0.1,0.1,0.1,0.1c0,0,0,0.1,0.1,0.1l0.3,0.1c0.1,0,0.2,0.1,0.2,0.3
			l0.1,0.7c-0.1-1.8,0-3,0.6-3.3c0.2-0.1,0.5-0.2,0.9,0.1c1,0.8,2.5,0.7,3.7,0.6C31.8,21.4,32.1,21.4,32.3,21.4z M37.7,37.3H34
			c-0.2,0-0.3-0.1-0.3-0.3c0-0.2,0.1-0.3,0.3-0.3h3.7c0.2,0,0.3,0.1,0.3,0.3C38,37.2,37.9,37.3,37.7,37.3z"/>
	</g>
</g>
<g class="st0">
	<path class="st5" d="M35.2,56.6H24.8C13,56.6,3.4,47,3.4,35.2V24.8C3.4,13,13,3.4,24.8,3.4h10.4C47,3.4,56.6,13,56.6,24.8v10.4
		C56.6,47,47,56.6,35.2,56.6z"/>
	<rect x="23.7" y="3.4" class="st10" width="12.6" height="53.1"/>
	<g class="st3">
		<path class="st9" d="M34.7,54.8h-9.4c-11.1,0-20.1-9-20.1-20.1v-9.4c0-11.1,9-20.1,20.1-20.1h9.4c11.1,0,20.1,9,20.1,20.1v9.4
			C54.8,45.8,45.8,54.8,34.7,54.8z M25.3,7.1c-10,0-18.2,8.2-18.2,18.2v9.4c0,10,8.2,18.2,18.2,18.2h9.4c10,0,18.2-8.2,18.2-18.2
			v-9.4c0-10-8.2-18.2-18.2-18.2H25.3z"/>
	</g>
	<g class="st3">
		<polygon class="st7" points="30,38.7 30.6,39.9 32,40.1 31,41.1 31.2,42.5 30,41.8 28.7,42.5 29,41.1 28,40.1 29.4,39.9 		"/>
		<path class="st7" d="M37.9,40.2h-4.6c-0.2,0-0.3-0.2-0.3-0.3l0,0c0-0.2,0.2-0.3,0.3-0.3h4.6c0.2,0,0.3,0.2,0.3,0.3l0,0
			C38.2,40.1,38.1,40.2,37.9,40.2z"/>
		<path class="st7" d="M26.7,40.2h-4.6c-0.2,0-0.3-0.2-0.3-0.3l0,0c0-0.2,0.2-0.3,0.3-0.3h4.6c0.2,0,0.3,0.2,0.3,0.3l0,0
			C27.1,40.1,26.9,40.2,26.7,40.2z"/>
		<path class="st7" d="M36,41.5h-2.7c-0.2,0-0.3-0.2-0.3-0.3v0c0-0.2,0.2-0.3,0.3-0.3H36c0.2,0,0.3,0.2,0.3,0.3v0
			C36.3,41.3,36.2,41.5,36,41.5z"/>
		<path class="st7" d="M26.7,41.5H24c-0.2,0-0.3-0.2-0.3-0.3v0c0-0.2,0.2-0.3,0.3-0.3h2.7c0.2,0,0.3,0.2,0.3,0.3v0
			C27.1,41.3,26.9,41.5,26.7,41.5z"/>
	</g>
	<g class="st3">
		<path class="st7" d="M42,39c-0.2,0-0.3-0.1-0.3-0.3l-0.9-6.8c-0.1-0.8-0.6-1.4-1.4-1.7l-5.5-2.1l-2.1,1.6c-0.1,0-0.1,0.1-0.2,0.1
			h-1.2v6.9c0,0.2-0.1,0.3-0.3,0.3c-0.2,0-0.3-0.1-0.3-0.3v-6.9h-1.2c-0.1,0-0.1,0-0.2-0.1l-2.2-1.6l-5.6,2.1
			c-0.7,0.3-1.2,0.9-1.4,1.7l-0.9,6.8c0,0.2-0.2,0.3-0.4,0.3c-0.2,0-0.3-0.2-0.3-0.4l0.9-6.8c0.2-1.1,0.8-1.9,1.8-2.2l5.7-2.1
			c0.3-0.3,0.6-0.7,0.7-1.1c-0.6-0.7-1-1.5-1.2-2.1L25.5,24l-0.3-0.2c-0.1,0-0.1-0.1-0.2-0.2c-0.4-1-0.5-1.9-0.5-2.8
			c0-0.1,0.1-0.2,0.1-0.3l0.1-0.1c-0.2-0.2-0.3-0.5-0.2-1.1l0-0.3l0-0.9l-1.2-1.1c-0.1-0.1-0.1-0.1-0.1-0.2c0-0.1,0-0.2,0.1-0.2
			l1.9-2.1c0-0.1,0.1-0.1,0.2-0.1l4.6-1c0,0,0.1,0,0.1,0l4.6,1c0.1,0,0.1,0.1,0.2,0.1l1.8,2.1c0.1,0.1,0.1,0.3,0,0.5l-1.1,1.1l0,1
			l0,0.3c0.2,0.7,0,1-0.2,1.2l0,0c0.1,0.1,0.1,0.2,0.1,0.3c0,0.9-0.2,1.8-0.5,2.8c0,0.1-0.1,0.1-0.2,0.2L34.5,24l-0.1,0.2
			c-0.2,0.7-0.6,1.4-1.2,2.1c0.2,0.4,0.4,0.8,0.8,1.1l5.6,2.1c1,0.4,1.6,1.2,1.8,2.2l0.9,6.9C42.4,38.8,42.2,39,42,39
			C42.1,39,42,39,42,39z M30,29.1h1.4l1.9-1.4c0,0,0,0,0-0.1c-0.2-0.2-0.4-0.5-0.5-0.8c-0.5,0.5-1.1,0.9-1.7,1.2c0,0,0,0-0.1,0
			c-0.7,0.1-1.4,0.1-2.1,0c0,0,0,0-0.1,0c-0.6-0.2-1.2-0.7-1.7-1.2c-0.1,0.3-0.3,0.6-0.5,0.8c0,0,0,0,0,0l1.9,1.4H30z M29.1,27.4
			c0.6,0.1,1.2,0.1,1.8,0c0.6-0.3,1.2-0.8,1.7-1.4c0,0,0,0,0,0c0.6-0.7,1-1.4,1.2-2l0.1-0.3c0-0.1,0.1-0.2,0.2-0.2l0.3-0.2
			c0.3-0.8,0.4-1.5,0.4-2.3l-0.4,0.2l-0.2,1c0,0.2-0.2,0.3-0.4,0.2c-0.2,0-0.3-0.2-0.2-0.4l0.2-0.9c-2.4,0.7-5.2,0.7-7.6,0l0.2,0.9
			c0,0.2-0.1,0.4-0.3,0.4c-0.2,0-0.4-0.1-0.4-0.3l-0.2-1L25.2,21l0,0c0,0.7,0.2,1.5,0.4,2.3l0.3,0.2c0.1,0,0.1,0.1,0.2,0.2l0.1,0.3
			C26.5,25.2,27.8,26.8,29.1,27.4z M24.1,16.8l1.1,0.9c0.1,0.1,0.1,0.1,0.1,0.2l0,1.1c0,0,0,0,0,0.1l-0.1,0.4c0,0,0,0,0,0
			c-0.1,0.5-0.1,0.5,0.1,0.6c0,0,0.1,0,0.1,0c2.8,1.2,6.4,1.2,9.2,0c0.1,0,0.1,0,0.1,0c0.2-0.1,0.3-0.1,0.1-0.6c0,0,0,0,0,0
			l-0.1-0.4c0,0,0,0,0-0.1l0-1.1c0-0.1,0-0.2,0.1-0.2l1-0.9L34.4,15l-4.4-0.9L25.7,15L24.1,16.8z M36.8,34.9h-3.2
			c-0.2,0-0.3-0.1-0.3-0.3v-0.9c0-0.2,0.1-0.3,0.3-0.3h3.2c0.2,0,0.3,0.1,0.3,0.3v0.9C37.1,34.7,37,34.9,36.8,34.9z M34,34.2h2.5V34
			H34V34.2z M25.9,34.9h-3.2c-0.2,0-0.3-0.1-0.3-0.3v-0.9c0-0.2,0.1-0.3,0.3-0.3h3.2c0.2,0,0.3,0.1,0.3,0.3v0.9
			C26.2,34.7,26.1,34.9,25.9,34.9z M23.1,34.2h2.5V34h-2.5V34.2z M34.5,19.5C34.5,19.5,34.5,19.5,34.5,19.5
			c-1.6-0.3-3.1-0.5-4.5-0.5c0,0,0,0,0,0c-1.4,0-2.9,0.1-4.3,0.4c-0.2,0-0.4-0.1-0.4-0.3c0-0.2,0.1-0.4,0.3-0.4
			c1.5-0.3,3-0.4,4.4-0.4c0,0,0,0,0,0c1.5,0,3.1,0.2,4.6,0.5c0.2,0,0.3,0.2,0.3,0.4C34.8,19.4,34.7,19.5,34.5,19.5z"/>
	</g>
</g>
<g class="st0">
	<path class="st1" d="M35.2,56.6H24.8C13,56.6,3.4,47,3.4,35.2V24.8C3.4,13,13,3.4,24.8,3.4h10.4C47,3.4,56.6,13,56.6,24.8v10.4
		C56.6,47,47,56.6,35.2,56.6z"/>
	<g class="st3">
		<path class="st4" d="M34.7,54.8h-9.4c-11.1,0-20.1-9-20.1-20.1v-9.4c0-11.1,9-20.1,20.1-20.1h9.4c11.1,0,20.1,9,20.1,20.1v9.4
			C54.8,45.8,45.8,54.8,34.7,54.8z M25.3,7.1c-10,0-18.2,8.2-18.2,18.2v9.4c0,10,8.2,18.2,18.2,18.2h9.4c10,0,18.2-8.2,18.2-18.2
			v-9.4c0-10-8.2-18.2-18.2-18.2H25.3z"/>
	</g>
	<g class="st3">
		<path class="st4" d="M42,40.9c-0.2,0-0.3-0.1-0.3-0.3l-0.9-6.8c-0.1-0.8-0.6-1.4-1.4-1.7L33.9,30l-2.1,1.6c-0.1,0-0.1,0.1-0.2,0.1
			h-1.2v8.8c0,0.2-0.1,0.3-0.3,0.3c-0.2,0-0.3-0.1-0.3-0.3v-8.8h-1.2c-0.1,0-0.1,0-0.2-0.1L26.1,30l-5.6,2.1
			c-0.7,0.3-1.2,0.9-1.4,1.7l-0.9,6.8c0,0.2-0.2,0.3-0.4,0.3c-0.2,0-0.3-0.2-0.3-0.4l0.9-6.8c0.2-1.1,0.8-1.9,1.8-2.2l5.7-2.1
			c0.3-0.3,0.6-0.7,0.7-1.1c-0.6-0.7-1-1.5-1.2-2.1l-0.1-0.2l-0.3-0.2c-0.1,0-0.1-0.1-0.2-0.2c-0.4-1-0.5-1.9-0.5-2.8
			c0-0.1,0.1-0.2,0.1-0.3l0.1-0.1c-0.2-0.2-0.3-0.5-0.2-1.1l0-0.3l0-0.9L23.4,19c-0.1-0.1-0.1-0.1-0.1-0.2c0-0.1,0-0.2,0.1-0.2
			l1.9-2.1c0-0.1,0.1-0.1,0.2-0.1l4.6-1c0,0,0.1,0,0.1,0l4.6,1c0.1,0,0.1,0.1,0.2,0.1l1.8,2.1c0.1,0.1,0.1,0.3,0,0.5L35.5,20l0,1
			l0,0.3c0.2,0.7,0,1-0.2,1.2l0,0c0.1,0.1,0.1,0.2,0.1,0.3c0,0.9-0.2,1.8-0.5,2.8c0,0.1-0.1,0.1-0.2,0.2l-0.3,0.2l-0.1,0.2
			c-0.2,0.7-0.6,1.4-1.2,2.1c0.2,0.4,0.4,0.8,0.8,1.1l5.6,2.1c1,0.4,1.6,1.2,1.8,2.2l0.9,6.9C42.4,40.7,42.2,40.9,42,40.9
			C42.1,40.9,42,40.9,42,40.9z M30,31h1.4l1.9-1.4c0,0,0,0,0-0.1c-0.2-0.2-0.4-0.5-0.5-0.8c-0.5,0.5-1.1,0.9-1.7,1.2c0,0,0,0-0.1,0
			c-0.7,0.1-1.4,0.1-2.1,0c0,0,0,0-0.1,0c-0.6-0.2-1.2-0.7-1.7-1.2c-0.1,0.3-0.3,0.6-0.5,0.8c0,0,0,0,0,0l1.9,1.4H30z M29.1,29.3
			c0.6,0.1,1.2,0.1,1.8,0c0.6-0.3,1.2-0.8,1.7-1.4c0,0,0,0,0,0c0.6-0.7,1-1.4,1.2-2l0.1-0.3c0-0.1,0.1-0.2,0.2-0.2l0.3-0.2
			c0.3-0.8,0.4-1.5,0.4-2.3l-0.4,0.2l-0.2,1c0,0.2-0.2,0.3-0.4,0.2c-0.2,0-0.3-0.2-0.2-0.4l0.2-0.9c-2.4,0.7-5.2,0.7-7.6,0l0.2,0.9
			c0,0.2-0.1,0.4-0.3,0.4c-0.2,0-0.4-0.1-0.4-0.3l-0.2-1l-0.3-0.1l0,0c0,0.7,0.2,1.5,0.4,2.3l0.3,0.2c0.1,0,0.1,0.1,0.2,0.2l0.1,0.3
			C26.5,27.1,27.8,28.7,29.1,29.3z M24.1,18.7l1.1,0.9c0.1,0.1,0.1,0.1,0.1,0.2l0,1.1c0,0,0,0,0,0.1l-0.1,0.4c0,0,0,0,0,0
			c-0.1,0.5-0.1,0.5,0.1,0.6c0,0,0.1,0,0.1,0c2.8,1.2,6.4,1.2,9.2,0c0.1,0,0.1,0,0.1,0c0.2-0.1,0.3-0.1,0.1-0.6c0,0,0,0,0,0L34.9,21
			c0,0,0,0,0-0.1l0-1.1c0-0.1,0-0.2,0.1-0.2l1-0.9l-1.5-1.8L30.1,16l-4.4,0.9L24.1,18.7z M36.8,36.8h-3.2c-0.2,0-0.3-0.1-0.3-0.3
			v-0.9c0-0.2,0.1-0.3,0.3-0.3h3.2c0.2,0,0.3,0.1,0.3,0.3v0.9C37.1,36.6,37,36.8,36.8,36.8z M34,36.1h2.5v-0.2H34V36.1z M25.9,36.8
			h-3.2c-0.2,0-0.3-0.1-0.3-0.3v-0.9c0-0.2,0.1-0.3,0.3-0.3h3.2c0.2,0,0.3,0.1,0.3,0.3v0.9C26.2,36.6,26.1,36.8,25.9,36.8z
			 M23.1,36.1h2.5v-0.2h-2.5V36.1z M34.5,21.4C34.5,21.4,34.5,21.4,34.5,21.4C33,21.1,31.5,21,30,21c0,0,0,0,0,0
			c-1.4,0-2.9,0.1-4.3,0.4c-0.2,0-0.4-0.1-0.4-0.3c0-0.2,0.1-0.4,0.3-0.4c1.5-0.3,3-0.4,4.4-0.4c0,0,0,0,0,0c1.5,0,3.1,0.2,4.6,0.5
			c0.2,0,0.3,0.2,0.3,0.4C34.8,21.3,34.7,21.4,34.5,21.4z"/>
	</g>
</g>
<g class="st0">
	<g class="st3">
		<path class="st11" d="M36.3,6L36.3,6c1.7,1.7,3.9,2.6,6.3,2.6h0c4.9,0,8.9,4,8.9,8.9v0c0,2.4,0.9,4.6,2.6,6.3l0,0
			c3.5,3.5,3.5,9.1,0,12.5l0,0c-1.7,1.7-2.6,3.9-2.6,6.3v0c0,4.9-4,8.9-8.9,8.9h0c-2.4,0-4.6,0.9-6.3,2.6l0,0
			c-3.5,3.5-9.1,3.5-12.5,0l0,0c-1.7-1.7-3.9-2.6-6.3-2.6h0c-4.9,0-8.9-4-8.9-8.9v0c0-2.4-0.9-4.6-2.6-6.3l0,0
			c-3.5-3.5-3.5-9.1,0-12.5l0,0c1.7-1.7,2.6-3.9,2.6-6.3v0c0-4.9,4-8.9,8.9-8.9h0c2.4,0,4.6-0.9,6.3-2.6l0,0
			C27.2,2.6,32.8,2.6,36.3,6z"/>
		<path class="st12" d="M30,56.7c-2.3,0-4.6-0.9-6.3-2.6c-1.7-1.7-3.9-2.6-6.2-2.6c-4.9,0-9-4-9-9c0-2.3-0.9-4.5-2.6-6.2
			c-3.5-3.5-3.5-9.2,0-12.7c1.7-1.7,2.6-3.9,2.6-6.2c0-4.9,4-9,9-9c2.3,0,4.5-0.9,6.2-2.6c1.7-1.7,3.9-2.6,6.3-2.6s4.6,0.9,6.3,2.6
			l0,0c1.7,1.7,3.9,2.6,6.2,2.6c4.9,0,9,4,9,9c0,2.3,0.9,4.5,2.6,6.2c3.5,3.5,3.5,9.2,0,12.7c-1.7,1.7-2.6,3.9-2.6,6.2
			c0,4.9-4,9-9,9c-2.3,0-4.5,0.9-6.2,2.6C34.6,55.8,32.3,56.7,30,56.7z M30,3.5c-2.3,0-4.5,0.9-6.2,2.6c-1.7,1.7-3.9,2.6-6.3,2.6
			c-4.8,0-8.8,3.9-8.8,8.8c0,2.4-0.9,4.6-2.6,6.3c-3.4,3.4-3.4,9,0,12.4c1.7,1.7,2.6,3.9,2.6,6.3c0,4.8,3.9,8.8,8.8,8.8
			c2.4,0,4.6,0.9,6.3,2.6c3.4,3.4,9,3.4,12.4,0c1.7-1.7,3.9-2.6,6.3-2.6c4.8,0,8.8-3.9,8.8-8.8c0-2.4,0.9-4.6,2.6-6.3
			c3.4-3.4,3.4-9,0-12.4c-1.7-1.7-2.6-3.9-2.6-6.3c0-4.8-3.9-8.8-8.8-8.8c-2.4,0-4.6-0.9-6.3-2.6l0,0C34.5,4.4,32.3,3.5,30,3.5z"/>
	</g>
	<g class="st13">
		<defs>
			<path id="SVGID_3_" class="st14" d="M36.2,6.2L36.2,6.2c1.6,1.6,3.9,2.6,6.2,2.6h0c4.9,0,8.8,3.9,8.8,8.8v0
				c0,2.3,0.9,4.6,2.6,6.2l0,0c3.4,3.4,3.4,9,0,12.4l0,0c-1.6,1.6-2.6,3.9-2.6,6.2v0c0,4.9-3.9,8.8-8.8,8.8h0
				c-2.3,0-4.6,0.9-6.2,2.6l0,0c-3.4,3.4-9,3.4-12.4,0l0,0c-1.6-1.6-3.9-2.6-6.2-2.6h0c-4.9,0-8.8-3.9-8.8-8.8v0
				c0-2.3-0.9-4.6-2.6-6.2l0,0c-3.4-3.4-3.4-9,0-12.4l0,0c1.6-1.6,2.6-3.9,2.6-6.2v0c0-4.9,3.9-8.8,8.8-8.8h0c2.3,0,4.6-0.9,6.2-2.6
				l0,0C27.2,2.8,32.8,2.8,36.2,6.2z"/>
		</defs>
		<clipPath id="SVGID_4_">
			<use xlink:href="#SVGID_3_"  style="overflow:visible;"/>
		</clipPath>
		<g class="st18">
			<polygon class="st16" points="30,30 26.3,15 22.6,0 30,0 37.5,0 33.8,15 			"/>
			<polygon class="st16" points="30,30 41.1,19.2 52.2,8.4 55.9,14.9 59.7,21.4 44.9,25.7 			"/>
			<polygon class="st16" points="30,30 44.9,34.1 59.8,38.2 56.1,44.7 52.4,51.2 41.2,40.6 			"/>
			<polygon class="st16" points="30,30 34,44.9 37.9,59.8 30.4,59.9 22.9,60 26.5,45 			"/>
			<polygon class="st16" points="30,30 19.1,40.9 8.2,51.7 4.3,45.3 0.5,38.9 15.3,34.4 			"/>
			<polygon class="st16" points="30,30 15.1,26 0.2,22 3.8,15.5 7.4,8.9 18.7,19.5 			"/>
		</g>
	</g>
	<g class="st3">
		<path class="st12" d="M30,54.1c-2.3,0-4.5-0.9-6.1-2.5c-1.3-1.3-3-2-4.8-2c-4.8,0-8.6-3.9-8.6-8.6c0-1.8-0.7-3.5-2-4.8
			C6.9,34.5,6,32.3,6,30c0-2.3,0.9-4.5,2.5-6.1c1.3-1.3,2-3,2-4.8c0-4.8,3.9-8.6,8.6-8.6c1.8,0,3.5-0.7,4.8-2C25.5,6.9,27.7,6,30,6
			s4.5,0.9,6.1,2.5v0c1.3,1.3,3,2,4.8,2c4.8,0,8.6,3.9,8.6,8.6c0,1.8,0.7,3.5,2,4.8c1.6,1.6,2.5,3.8,2.5,6.1c0,2.3-0.9,4.5-2.5,6.1
			c-1.3,1.3-2,3-2,4.8c0,4.8-3.9,8.6-8.6,8.6c-1.8,0-3.5,0.7-4.8,2C34.5,53.2,32.3,54.1,30,54.1z M30,7.9c-1.7,0-3.5,0.7-4.8,2
			c-1.6,1.6-3.8,2.5-6.1,2.5c-3.7,0-6.8,3-6.8,6.8c0,2.3-0.9,4.5-2.5,6.1c-2.6,2.6-2.6,6.9,0,9.5c1.6,1.6,2.5,3.8,2.5,6.1
			c0,3.7,3,6.8,6.8,6.8c2.3,0,4.5,0.9,6.1,2.5c2.6,2.6,6.9,2.6,9.5,0c1.6-1.6,3.8-2.5,6.1-2.5c3.7,0,6.8-3,6.8-6.8
			c0-2.3,0.9-4.5,2.5-6.1c2.6-2.6,2.6-6.9,0-9.5c-1.6-1.6-2.5-3.8-2.5-6.1c0-3.7-3-6.8-6.8-6.8c-2.3,0-4.5-0.9-6.1-2.5h0
			C33.5,8.5,31.7,7.9,30,7.9z"/>
	</g>
	<g class="st3">
		<polygon class="st7" points="30,38.1 30.7,39.6 32.4,39.8 31.2,41 31.5,42.7 30,41.9 28.5,42.7 28.8,41 27.6,39.8 29.2,39.6 		"/>
		<g>
			<path class="st7" d="M38.4,39.5H34c-0.2,0-0.3-0.1-0.3-0.3l0,0c0-0.2,0.1-0.3,0.3-0.3h4.4c0.2,0,0.3,0.1,0.3,0.3l0,0
				C38.7,39.4,38.6,39.5,38.4,39.5z"/>
			<path class="st7" d="M26,39.5h-4.4c-0.2,0-0.3-0.1-0.3-0.3l0,0c0-0.2,0.1-0.3,0.3-0.3H26c0.2,0,0.3,0.1,0.3,0.3l0,0
				C26.3,39.4,26.2,39.5,26,39.5z"/>
			<path class="st7" d="M36.6,40.7H34c-0.2,0-0.3-0.1-0.3-0.3l0,0c0-0.2,0.1-0.3,0.3-0.3h2.6c0.2,0,0.3,0.1,0.3,0.3l0,0
				C36.9,40.6,36.8,40.7,36.6,40.7z"/>
			<path class="st7" d="M26,40.7h-2.6c-0.2,0-0.3-0.1-0.3-0.3l0,0c0-0.2,0.1-0.3,0.3-0.3H26c0.2,0,0.3,0.1,0.3,0.3l0,0
				C26.3,40.6,26.2,40.7,26,40.7z"/>
			<path class="st7" d="M34.8,41.9H34c-0.2,0-0.3-0.1-0.3-0.3l0,0c0-0.2,0.1-0.3,0.3-0.3h0.8c0.2,0,0.3,0.1,0.3,0.3l0,0
				C35.1,41.8,35,41.9,34.8,41.9z"/>
			<path class="st7" d="M26,41.9h-0.8c-0.2,0-0.3-0.1-0.3-0.3l0,0c0-0.2,0.1-0.3,0.3-0.3H26c0.2,0,0.3,0.1,0.3,0.3l0,0
				C26.3,41.8,26.2,41.9,26,41.9z"/>
		</g>
	</g>
	<g class="st3">
		<g>
			<g>
				<g>
					<path class="st7" d="M42,38.4c-0.2,0-0.3-0.1-0.3-0.3l-0.3-2l-2.5-1.9c-0.1-0.1-0.1-0.2-0.1-0.3v-1.1c0-0.1,0.1-0.2,0.1-0.3
						c0.1-0.1,0.2-0.1,0.3,0l1.6,0.7l-0.1-0.4c-0.1-0.8-0.6-1.4-1.4-1.7l-0.2-0.1c-0.5,0.2-1,0.5-1.2,0.8c-0.1,0.1-0.3,0.7-1,4.4
						c0,0.2-0.2,0.3-0.4,0.3c-0.2,0-0.3-0.2-0.3-0.4c0.8-4.2,1-4.5,1.1-4.6c0.2-0.3,0.5-0.5,0.9-0.7l-0.4-0.1
						c-0.9,0.6-1.1,0.9-1.2,1.1c-0.1,0.3-0.8,4.1-1,5.6c0,0.2-0.2,0.3-0.4,0.3c-0.2,0-0.3-0.2-0.3-0.4c0.2-1.4,0.9-5.4,1-5.7
						c0.1-0.3,0.4-0.7,1.1-1.2l-3.4-1.3c-1,1.2-2.3,1.8-3.9,2c0,0,0,0-0.1,0c-1.6-0.2-2.9-0.8-3.9-2l-3.4,1.3c0.7,0.5,0.9,0.8,1,1.2
						c0.1,0.4,0.8,4.4,1,5.7c0,0.2-0.1,0.4-0.3,0.4c-0.2,0-0.4-0.1-0.4-0.3c-0.2-1.5-0.9-5.3-1-5.6c-0.1-0.2-0.3-0.5-1.1-1.1
						l-0.4,0.1c0.3,0.2,0.7,0.5,0.9,0.7c0.1,0.1,0.3,0.4,1.1,4.6c0,0.2-0.1,0.4-0.3,0.4c-0.2,0-0.4-0.1-0.4-0.3
						c-0.7-3.7-0.9-4.3-1-4.4c-0.2-0.3-0.7-0.6-1.1-0.8l-0.1,0c-0.7,0.3-1.2,0.9-1.4,1.7l-0.1,0.4l1.6-0.6c0.1,0,0.2,0,0.3,0
						c0.1,0.1,0.1,0.2,0.1,0.3V34c0,0.1,0,0.2-0.1,0.3l-2.5,1.9l-0.3,2c0,0.2-0.2,0.3-0.4,0.3c-0.2,0-0.3-0.2-0.3-0.3c0,0,0,0,0-0.1
						l0.4-2.1c0,0,0,0,0,0l0.4-2.2c0,0,0,0,0,0l0.2-1c0.2-1,0.8-1.9,1.8-2.2l5.6-2.1l0.3-0.5c-0.3-0.2-0.5-0.5-0.8-0.7c0,0,0,0,0,0
						c-0.6-0.8-0.9-1.7-1.1-2.7c-0.1-0.3-0.1-0.6-0.2-0.9c0,0,0,0,0-0.1c0-0.4-0.1-0.8-0.1-1.2c0-0.1,0-0.2,0-0.3c0-0.5,0-0.7,0-1
						c0-0.1,0-0.2,0-0.4c0,0,0,0,0,0c0-0.8,0-1.7,0.1-2.4c0.3-1.7,3-4.3,6-4.3c0,0,0,0,0,0c1.3,0,2.7,0.5,3.9,1.4
						c1.1,0.8,1.9,1.9,2,2.8c0.1,0.7,0.1,1.6,0.1,2.4c0,0,0,0.1,0,0.1c0,0.2,0,0.3,0,0.4c0,0.3,0,0.5,0,1c0,0.1,0,0.2,0,0.3
						c0,0.4-0.1,0.8-0.1,1.1c0,0,0,0,0,0.1c-0.1,0.3-0.2,0.6-0.2,0.9c-0.2,1-0.5,1.9-1.1,2.7c0,0,0,0,0,0c-0.3,0.3-0.5,0.5-0.8,0.7
						l0.3,0.5l5.6,2.1c1,0.4,1.6,1.2,1.8,2.2l0.9,5.3C42.4,38.2,42.2,38.4,42,38.4C42,38.4,42,38.4,42,38.4z M39.4,33.9l1.8,1.3
						L41,34l-1.6-0.6V33.9z M19,34l-0.2,1.2l1.8-1.3v-0.5L19,34z M26.6,28.6c0.9,1,2,1.6,3.4,1.7c1.4-0.2,2.5-0.7,3.4-1.7l-0.2-0.3
						c-0.4,0.3-0.8,0.5-1.2,0.7c0,0,0,0,0,0c-0.6,0.2-1.3,0.3-2,0.3c0,0,0,0,0,0c-0.7,0-1.4-0.1-2-0.3c0,0,0,0,0,0
						c-0.4-0.2-0.8-0.4-1.2-0.7L26.6,28.6z M30,28.6C30,28.6,30,28.6,30,28.6c0.6,0,1.2-0.1,1.8-0.2c0.9-0.5,1.6-1,2.3-1.7
						c0.5-0.6,0.7-1.4,0.9-2.4c0-0.1,0.1-0.3,0.1-0.4c-0.5,0.5-1.2,0.8-1.6,0.8c-1.1,0-1.8-0.6-2.4-1.1c-0.4-0.3-0.7-0.6-1.1-0.6
						c-0.3,0-0.7,0.3-1.1,0.6c-0.6,0.5-1.3,1.1-2.3,1.1c-0.5,0-1.2-0.3-1.8-0.9c0,0.2,0.1,0.4,0.1,0.6c0.2,0.9,0.4,1.7,0.9,2.4
						c0.3,0.3,0.6,0.5,0.9,0.8c0,0,0,0,0,0c0,0,0.1,0,0.1,0.1c0.4,0.3,0.8,0.5,1.3,0.8C28.7,28.6,29.3,28.6,30,28.6
						C30,28.6,30,28.6,30,28.6z M30,22.3c0.6,0,1.1,0.4,1.5,0.8c0.5,0.5,1.1,1,2,1c0.5,0,1.7-0.8,1.9-1.7c0-0.5,0.1-1.1,0.1-1.7
						c0-0.5,0-1-0.6-1.4c-3.2-1.9-6.5-1.9-9.7,0c-0.6,0.5-0.6,0.9-0.6,1.4c0,0,0,0.1,0,0.1c0,0.5,0,1,0.1,1.5c0.2,0.9,1.4,1.7,2,1.7
						c0.8,0,1.4-0.5,1.9-0.9C28.9,22.7,29.4,22.3,30,22.3z M28.1,15c-1.8,0.7-3.3,2.3-3.4,3.3c0,0.2,0,0.4-0.1,0.6
						c0.1,0,0.1-0.1,0.2-0.1c0,0,0,0,0,0c3.4-2,6.9-2,10.4,0c0.1,0,0.1,0.1,0.2,0.1c0-0.2,0-0.4-0.1-0.5c-0.2-1.1-1.6-2.6-3.4-3.3
						c-0.1,0-0.1,0.1-0.2,0.1c-0.2,0-0.3,0.1-0.5,0.2C31,15.5,31,16,31,16.2c0,0.2-0.1,0.3-0.3,0.4c-0.2,0-0.3-0.1-0.4-0.3
						c0-0.1-0.1-1,0.4-1.5c0,0,0-0.1,0.1-0.1c-0.3,0-0.6-0.1-0.9-0.1c0,0,0,0,0,0c-0.3,0-0.6,0-0.9,0.1c0,0,0,0,0.1,0.1
						c0.5,0.5,0.4,1.4,0.4,1.5c0,0.2-0.2,0.3-0.4,0.3c-0.2,0-0.3-0.2-0.3-0.4c0-0.2,0-0.7-0.3-1c-0.1-0.1-0.3-0.2-0.5-0.2
						C28.2,15.1,28.1,15,28.1,15z M35.1,35.1h-3.7c-0.2,0-0.3-0.1-0.3-0.3v-2.2c0-0.2,0.1-0.3,0.3-0.3h3.7c0.2,0,0.3,0.1,0.3,0.3
						v2.2C35.4,34.9,35.3,35.1,35.1,35.1z M31.7,34.4h3.1v-1.5h-3.1V34.4z M28.6,34h-3.7c-0.2,0-0.3-0.1-0.3-0.3v-1.1
						c0-0.2,0.1-0.3,0.3-0.3l3.7,0c0.1,0,0.2,0,0.2,0.1s0.1,0.1,0.1,0.2v1.1C28.9,33.8,28.8,34,28.6,34z M25.2,33.3h3.1v-0.5l-3.1,0
						V33.3z M30.8,27.7c-0.1,0-0.2,0-0.2-0.1c-0.1-0.1-0.2-0.3,0-0.5l0.8-0.9c0.1-0.1,0.3-0.2,0.5,0c0.1,0.1,0.2,0.3,0,0.5L31,27.6
						C30.9,27.7,30.8,27.7,30.8,27.7z M29.2,27.7c-0.1,0-0.2,0-0.2-0.1l-0.8-0.9c-0.1-0.1-0.1-0.3,0-0.5c0.1-0.1,0.3-0.1,0.5,0
						l0.8,0.9c0.1,0.1,0.1,0.3,0,0.5C29.3,27.7,29.3,27.7,29.2,27.7z M29.9,26.7c-0.2,0-0.3-0.1-0.3-0.3v-1.6c0-0.2,0.1-0.3,0.3-0.3
						s0.3,0.1,0.3,0.3v1.6C30.3,26.6,30.1,26.7,29.9,26.7z"/>
				</g>
			</g>
		</g>
	</g>
</g>
<g>
	<circle class="st17" cx="30" cy="30" r="26.6"/>
	<g>
		<path class="st4" d="M17.8,40.8C17.8,40.8,17.8,40.8,17.8,40.8c-0.2,0-0.4-0.2-0.3-0.4l0.9-5.4c0.2-1.1,0.8-1.9,1.8-2.2l5.7-2.1
			l0.7-1.3c-0.5-0.7-0.9-1.4-1.1-2.1L25.4,27l-0.3-0.2c-0.1,0-0.1-0.1-0.2-0.2c-0.4-1-0.5-1.9-0.5-2.8c0-0.1,0.1-0.2,0.1-0.3
			l0.1-0.1c-0.1-0.7-0.3-1.5-0.2-2c0-0.1,0-0.3,0-0.4c0-1.3-0.1-2.4,0.7-3.2c0.3-0.3,0.5-0.7,0.7-1c0.2-0.3,0.3-0.5,0.5-0.7
			c0.1-0.1,0.2-0.1,0.3-0.1c0.2,0,0.2,0.2,0.3,0.3c0,0,0,0,0,0c0,0,0-0.1,0-0.1c0-0.1,0-0.1,0-0.1c0-0.1,0-0.3,0-0.5c0,0,0,0,0,0
			c0-0.1,0.1-0.2,0.3-0.2c0.1,0,0.2,0,0.4,0.1c0.1,0.1,0.2,0.2,0.3,0.3c0.1,0.1,0.3,0.2,0.5,0.3c0-0.3,0.2-0.5,0.4-0.7
			c0.1-0.1,0.2-0.1,0.3-0.1c0.1,0,0.2,0.1,0.2,0.2c0.5,0.9,0.8,1,0.9,1.1c0.1-0.1,0.1-0.2,0.2-0.3c0.1-0.1,0.2-0.2,0.2-0.2
			c0.2,0,0.3,0,0.4,0.1c0,0,0.1,0,0.1,0.1c0.4,0.6,1,0.7,1.5,0.9c0.3,0.1,0.5,0.1,0.8,0.2c0.9,0.4,2,1.7,2.1,2.6
			c0.2,0.7,0.1,2.4,0,3.4l0.1,0.1c0.1,0.1,0.1,0.2,0.1,0.3c0,0.9-0.2,1.9-0.5,2.8c0,0.1-0.1,0.1-0.2,0.2L34.6,27l-0.1,0.2
			c-0.2,0.6-0.6,1.4-1.1,2.1l0.7,1.3l5.7,2.1c1,0.4,1.6,1.2,1.8,2.2l0.9,5.4c0,0.2-0.1,0.4-0.3,0.4c-0.2,0-0.4-0.1-0.4-0.3L41,35.1
			c-0.1-0.8-0.6-1.4-1.2-1.7c-0.8,2.7-1.2,4.9-1.1,7c0,0.2-0.1,0.3-0.3,0.3c-0.2,0-0.3-0.1-0.3-0.3c-0.1-2.2,0.2-4.5,1.1-7.3
			L34,31.2l-3.7,3.8c-0.1,0.1-0.1,0.1-0.2,0.1h0c-0.1,0-0.2,0-0.2-0.1L26,31.2l-5.1,1.9c0.9,2.7,1.2,5.1,1.1,7.3
			c0,0.2-0.2,0.3-0.3,0.3c-0.2,0-0.3-0.2-0.3-0.3c0.1-2.1-0.2-4.4-1.1-7c-0.7,0.3-1.1,0.9-1.3,1.7l-0.9,5.4
			C18.1,40.6,18,40.8,17.8,40.8z M26.5,30.8l3.5,3.6l3.5-3.6l-0.5-1c-0.5,0.6-1.1,1-1.8,1.3c0,0,0,0-0.1,0c-0.7,0.1-1.5,0.1-2.2,0
			c0,0,0,0-0.1,0c-0.6-0.3-1.3-0.7-1.8-1.3L26.5,30.8z M29.1,30.5c0.6,0.1,1.3,0.1,1.9,0c0.6-0.3,1.3-0.8,1.8-1.4
			c0-0.1,0.1-0.1,0.1-0.2c0.5-0.6,0.9-1.3,1.1-1.9l0.1-0.3c0-0.1,0.1-0.2,0.2-0.2l0.3-0.2c0.3-0.7,0.4-1.5,0.4-2.2l-0.3,0.2
			l-0.3,1.4c0,0.1-0.1,0.2-0.3,0.3c-0.5,0-0.8-0.1-0.9-0.4c-0.2-0.6-0.1-1.5-0.1-2.2c0-0.2,0-0.5,0-0.6c0-0.1-0.2-0.7-1.5-0.6
			c-0.4,0-0.6,0.1-0.9,0.1c-0.4,0.1-0.8,0.2-1.7,0.1c-0.3,0-0.5-0.1-0.7-0.1c-0.9-0.1-1.2-0.1-1.5,0.3c-0.1,0.2-0.1,0.7-0.1,1.1
			c0,0.5,0.1,1.1-0.1,1.6c-0.1,0.3-0.4,0.4-0.6,0.5l-0.1,0c-0.1,0-0.2,0-0.3,0c-0.1,0-0.2-0.1-0.2-0.2l-0.2-1.3l-0.3-0.2
			c0,0.7,0.2,1.4,0.4,2.2l0.3,0.2c0.1,0,0.1,0.1,0.2,0.2l0.1,0.3C26.5,28.3,27.7,29.9,29.1,30.5z M31.8,21.6c1.6,0,1.9,1,1.9,1.2
			c0,0.2,0,0.4,0,0.8c0,0.5-0.1,1.2,0,1.8l0.3-1.2c0-0.1,0.1-0.2,0.1-0.2l0.6-0.4c0,0,0,0,0,0c0.2-1.6,0.2-2.8,0-3.2c0,0,0,0,0-0.1
			c-0.1-0.7-1.1-1.9-1.7-2.2c-0.2-0.1-0.5-0.1-0.7-0.2c-0.5-0.1-1.1-0.3-1.7-0.8c0,0,0,0,0,0.1c-0.1,0.2-0.3,0.3-0.5,0.3
			c-0.3,0-0.7-0.3-1.1-0.8c0,0,0,0,0,0c0,0.1,0,0.3-0.1,0.3C28.8,17,28.7,17,28.6,17c-0.5-0.1-0.8-0.3-1.1-0.5c0,0.1,0,0.1,0,0.2
			c0,0.3-0.1,0.5-0.3,0.6c-0.1,0.1-0.4,0.1-0.7-0.2c0,0,0,0,0,0c0,0.1-0.1,0.1-0.1,0.2c-0.2,0.3-0.4,0.7-0.7,1.1
			C25,19,25,19.8,25.1,21c0,0.1,0,0.3,0,0.4c0,0,0,0,0,0c0,0.5,0.1,1.2,0.2,1.9c0,0,0,0,0,0c0,0,0,0.1,0,0.1l0.5,0.4
			C26,24,26,24.1,26,24.1l0.2,0.9c0.1-0.3,0-0.8,0-1.2c0-0.6-0.1-1.2,0.2-1.5c0.5-0.8,1.3-0.7,2.2-0.6c0.2,0,0.4,0.1,0.7,0.1
			c0.7,0.1,1.1,0,1.5-0.1c0.3,0,0.5-0.1,0.9-0.1C31.7,21.6,31.8,21.6,31.8,21.6z"/>
	</g>
</g>
</svg>
