<?xml version="1.0" encoding="utf-8"?>
<!-- Generator: Adobe Illustrator 20.1.0, SVG Export Plug-In . SVG Version: 6.00 Build 0)  -->
<svg version="1.1" id="Layer_1" xmlns="http://www.w3.org/2000/svg" xmlns:xlink="http://www.w3.org/1999/xlink" x="0px" y="0px"
	 viewBox="0 0 142.6 18" style="enable-background:new 0 0 142.6 18;" xml:space="preserve">
<style type="text/css">
	.st0{fill:none;}
	.st1{fill:#FF0066;}
</style>
<rect x="2" class="st0" width="18" height="18"/>
<polygon class="st1" points="11,13.8 6.2,16.4 7.2,11 3.3,7.3 8.6,6.5 11,1.6 13.4,6.5 18.7,7.3 14.8,11 15.8,16.4 "/>
<rect x="22" class="st0" width="18" height="18"/>
<polygon class="st1" points="31,13.8 26.2,16.4 27.2,11 23.3,7.3 28.6,6.5 31,1.6 33.4,6.5 38.7,7.3 34.8,11 35.8,16.4 "/>
<rect x="42" class="st0" width="18" height="18"/>
<polygon class="st1" points="51,13.8 46.2,16.4 47.2,11 43.3,7.3 48.6,6.5 51,1.6 53.4,6.5 58.7,7.3 54.8,11 55.8,16.4 "/>
</svg>
